<svg width="326" height="303" viewBox="0 0 326 303" fill="none" xmlns="http://www.w3.org/2000/svg">
<path d="M279.568 113.394C262.601 48.66 203.974 1.93129 135.158 0.0570437C98.7773 -0.933823 60.4946 10.773 32.622 51.7395C-17.2034 124.972 35.6838 175.577 72.5554 199.624C90.3689 211.265 106.42 225.262 120.243 241.21C145.149 269.885 193.061 305.518 250.123 249.687C291.482 209.22 290.87 156.513 279.568 113.394Z" fill="#F2F2F2"/>
<path d="M325.622 257.553C325.622 273.442 254.156 303 164.133 303C74.1108 303 0 275.275 0 259.385C0 243.495 74.1108 245.458 164.133 245.458C254.156 245.458 325.622 241.663 325.622 257.553Z" fill="#3F3D56"/>
<path opacity="0.1" d="M325.622 257.553C325.622 273.442 254.156 303 164.133 303C74.1108 303 0 275.275 0 259.385C0 243.495 74.1108 245.458 164.133 245.458C254.156 245.458 325.622 241.663 325.622 257.553Z" fill="black"/>
<path d="M163 287.973C253.022 287.973 326 275.092 326 259.202C326 243.312 253.022 230.431 163 230.431C72.9776 230.431 0 243.312 0 259.202C0 275.092 72.9776 287.973 163 287.973Z" fill="#3F3D56"/>
<path d="M224.709 161.352V238.299L237.975 259.275L238.984 260.87H291.327L292.384 161.352H224.709Z" fill="#2F2E41"/>
<path opacity="0.1" d="M224.709 161.352V238.299L237.975 259.275L238.789 161.352H224.709Z" fill="black"/>
<path d="M98.3468 159.3V236.247L85.0813 257.223L84.0715 258.818H31.7287L30.6714 159.3H98.3468Z" fill="#2F2E41"/>
<path opacity="0.1" d="M98.347 159.3V236.247L85.0815 257.223L84.2671 159.3H98.347Z" fill="black"/>
<path d="M308.246 157.761V162.378H23.7983V155.709L50.2338 142.372H284.982L308.246 157.761Z" fill="#2F2E41"/>
<path opacity="0.1" d="M308.246 157.761V162.378H23.7983V155.709L308.246 157.761Z" fill="black"/>
<path opacity="0.1" d="M64.5093 180.845H51.8202L46.5332 177.254H70.3252L64.5093 180.845Z" fill="black"/>
<path opacity="0.1" d="M64.5093 195.722H51.8202L46.5332 192.131H70.3252L64.5093 195.722Z" fill="black"/>
<path opacity="0.1" d="M64.5093 216.754H51.8202L46.5332 213.163H70.3252L64.5093 216.754Z" fill="black"/>
<path opacity="0.1" d="M64.5093 237.786H51.8202L46.5332 234.195H70.3252L64.5093 237.786Z" fill="black"/>
<path opacity="0.1" d="M258.547 182.897H271.236L276.523 179.306H252.731L258.547 182.897Z" fill="black"/>
<path opacity="0.1" d="M258.547 197.773H271.236L276.523 194.183H252.731L258.547 197.773Z" fill="black"/>
<path opacity="0.1" d="M258.547 218.806H271.236L276.523 215.215H252.731L258.547 218.806Z" fill="black"/>
<path opacity="0.1" d="M258.547 239.838H271.236L276.523 236.247H252.731L258.547 239.838Z" fill="black"/>
<path d="M201.159 129.535L199.395 140.46C199.395 140.46 190.713 144.935 196.817 145.066C202.922 145.198 231.682 145.066 231.682 145.066C231.682 145.066 237.244 145.066 228.426 140.328L226.663 128.877L201.159 129.535Z" fill="#3F3D56"/>
<path opacity="0.1" d="M195.59 144.948C196.776 144.018 198.05 143.199 199.396 142.504L201.159 131.579L226.663 131.602L228.427 142.372C229.876 143.098 231.242 143.97 232.502 144.974C233.635 144.723 234.873 143.792 228.427 140.328L226.663 128.877L201.159 129.535L199.396 140.46C199.396 140.46 192.1 144.221 195.59 144.948Z" fill="black"/>
<path d="M267.188 53.3903H160.363C158.132 53.3903 156.323 55.1452 156.323 57.31V127.129C156.323 129.293 158.132 131.048 160.363 131.048H267.188C269.419 131.048 271.228 129.293 271.228 127.129V57.31C271.228 55.1452 269.419 53.3903 267.188 53.3903Z" fill="#3F3D56"/>
<path d="M267.362 57.5365H160.189V115.714H267.362V57.5365Z" fill="#F2F2F2"/>
<path d="M213.775 56.3519C214.15 56.3519 214.454 56.0572 214.454 55.6938C214.454 55.3303 214.15 55.0356 213.775 55.0356C213.401 55.0356 213.097 55.3303 213.097 55.6938C213.097 56.0572 213.401 56.3519 213.775 56.3519Z" fill="#F2F2F2"/>
<path d="M271.228 120.321V127.129C271.228 127.644 271.124 128.153 270.921 128.629C270.718 129.104 270.42 129.537 270.045 129.901C269.67 130.265 269.224 130.553 268.734 130.75C268.244 130.947 267.719 131.049 267.188 131.049H160.363C159.833 131.049 159.307 130.947 158.817 130.75C158.327 130.553 157.882 130.265 157.506 129.901C157.131 129.537 156.834 129.104 156.631 128.629C156.428 128.153 156.323 127.644 156.323 127.129V120.321H271.228Z" fill="#3F3D56"/>
<path d="M213.775 128.219C215.199 128.219 216.353 127.099 216.353 125.718C216.353 124.336 215.199 123.217 213.775 123.217C212.352 123.217 211.198 124.336 211.198 125.718C211.198 127.099 212.352 128.219 213.775 128.219Z" fill="#F2F2F2"/>
<path d="M209.758 152.174V153.49H136.773V152.437L136.873 152.174L138.672 147.436H208.266L209.758 152.174Z" fill="#3F3D56"/>
<path d="M237.846 150.886C237.713 151.437 237.211 152.019 236.077 152.569C232.007 154.543 223.732 152.043 223.732 152.043C223.732 152.043 217.355 150.99 217.355 148.225C217.534 148.106 217.721 147.999 217.914 147.903C219.625 147.025 225.299 144.857 235.358 147.995C236.099 148.22 236.761 148.641 237.27 149.211C237.496 149.426 237.666 149.69 237.766 149.981C237.866 150.272 237.893 150.582 237.846 150.886Z" fill="#3F3D56"/>
<path opacity="0.1" d="M237.846 150.886C232.864 152.738 228.424 152.876 223.867 149.805C221.569 148.257 219.481 147.874 217.915 147.903C219.626 147.025 225.299 144.857 235.358 147.995C236.099 148.22 236.761 148.641 237.271 149.211C237.496 149.426 237.666 149.69 237.766 149.981C237.866 150.272 237.893 150.582 237.846 150.886Z" fill="black"/>
<path d="M231.6 149.805C232.574 149.805 233.364 149.569 233.364 149.278C233.364 148.988 232.574 148.752 231.6 148.752C230.626 148.752 229.836 148.988 229.836 149.278C229.836 149.569 230.626 149.805 231.6 149.805Z" fill="#F2F2F2"/>
<path opacity="0.1" d="M209.758 152.174V153.49H136.773V152.437L136.873 152.174H209.758Z" fill="black"/>
<path d="M149.076 71.1549C157.055 71.1549 163.523 64.8789 163.523 57.1371C163.523 49.3953 157.055 43.1193 149.076 43.1193C141.096 43.1193 134.628 49.3953 134.628 57.1371C134.628 64.8789 141.096 71.1549 149.076 71.1549Z" fill="#FFB9B9"/>
<path d="M138.43 64.146V86.2794H162.003C162.003 86.2794 158.961 67.8349 160.482 62.3015L138.43 64.146Z" fill="#FFB9B9"/>
<path d="M185.195 94.0261C185.195 94.0261 162.763 83.3283 162.763 82.5905C162.763 81.8527 160.482 77.0571 158.961 77.0571C157.441 77.0571 144.514 72.9993 137.29 78.9016L136.529 83.6971L108.774 101.404L116.379 128.333C116.379 128.333 121.321 133.497 119.8 137.186C118.28 140.875 120.941 159.689 120.941 159.689L180.633 157.844V132.76C180.633 132.76 182.534 126.857 183.675 125.013C184.815 123.168 183.675 117.635 183.675 117.635L192.8 106.568C192.8 106.568 191.659 96.2394 185.195 94.0261Z" fill="#D0CDE1"/>
<path opacity="0.1" d="M109.725 110.442L111.435 101.404C111.435 101.404 101.55 143.089 102.691 147.884C103.831 152.68 112.196 160.057 113.336 160.426C114.477 160.795 125.123 128.702 125.123 128.702L109.725 110.442Z" fill="black"/>
<path d="M115.238 100.297L108.774 101.404C108.774 101.404 98.889 143.089 100.03 147.884C101.17 152.68 109.535 160.057 110.675 160.426C111.816 160.795 122.462 128.702 122.462 128.702L115.238 100.297Z" fill="#D0CDE1"/>
<path opacity="0.1" d="M187.286 112.655L190.518 106.568C190.518 106.568 195.08 148.253 192.039 152.311C188.997 156.369 176.965 157.887 176.965 157.887L176.831 127.595L187.286 112.655Z" fill="black"/>
<path d="M187.856 101.773L192.799 106.568C192.799 106.568 197.362 148.253 194.32 152.311C191.278 156.369 179.247 157.887 179.247 157.887L179.112 127.595L187.856 101.773Z" fill="#D0CDE1"/>
<path d="M114.097 165.222C114.097 165.222 103.071 161.164 101.17 168.911C99.2688 176.658 105.732 211.333 105.732 211.333C105.732 211.333 109.914 237.524 112.576 238.262C115.237 239 127.024 239.369 128.925 236.049C130.826 232.729 123.222 198.791 123.222 198.791L167.325 198.053C167.325 198.053 164.664 227.564 163.143 230.147C161.622 232.729 161.622 241.582 163.143 241.582C164.664 241.582 181.393 240.844 182.533 238.631C183.674 236.418 190.138 186.618 190.138 186.618C190.138 186.618 195.46 169.28 189.377 170.386C183.294 171.493 114.097 165.222 114.097 165.222Z" fill="#3F3D56"/>
<path d="M179.112 237.156C179.112 237.156 182.914 234.573 184.815 237.156C186.716 239.738 187.476 242.689 179.112 247.116C170.747 251.542 164.284 250.436 164.284 249.698V239L179.112 237.156Z" fill="#2F2E41"/>
<path d="M113.337 236.049C113.337 236.049 109.535 233.467 107.633 236.049C105.732 238.631 104.972 241.582 113.337 246.009C121.701 250.436 128.165 249.329 128.165 248.591V237.893L113.337 236.049Z" fill="#2F2E41"/>
<path d="M149.169 39.462C147.73 39.4135 146.294 39.6121 144.926 40.0488C143.865 40.4625 142.852 40.9826 141.903 41.6007L135.524 45.4491C134.983 45.6765 134.523 46.0544 134.202 46.5351C133.882 47.0158 133.715 47.5778 133.724 48.1503L132.927 53.9418C132.726 55.4034 132.54 56.9664 133.215 58.2878C133.777 59.3908 134.851 60.1455 135.733 61.0295C137.146 62.45 138.096 64.2422 138.467 66.183C138.923 68.601 138.631 71.5129 140.603 73.0561C141.671 73.8916 143.127 74.0497 144.496 74.1274C148.241 74.3395 151.999 74.1992 155.716 73.7084C156.307 73.6655 156.883 73.5088 157.411 73.2475C158.082 72.8627 158.504 72.1835 158.898 71.5318C160.323 69.1789 161.791 66.6759 161.775 63.9472C161.768 62.5973 161.412 61.1475 162.08 59.9633C162.433 59.46 162.816 58.9772 163.227 58.5174C164.054 57.3897 164.215 55.9408 164.35 54.5629C164.781 50.1616 164.33 46.8122 160.987 43.7118C157.866 40.8177 153.426 39.4886 149.169 39.462Z" fill="#2F2E41"/>
<path d="M113.68 208.802L100.991 271.386H107.335L119.496 209.829L113.68 208.802Z" fill="#2F2E41"/>
<path d="M154.39 213.933L162.321 285.75H167.608L162.85 211.88L154.39 213.933Z" fill="#2F2E41"/>
<path d="M176.067 211.88L187.17 259.588H192.457L181.883 210.855L176.067 211.88Z" fill="#2F2E41"/>
<path d="M133.771 211.88L132.185 249.841H136.414L139.587 211.88H133.771Z" fill="#2F2E41"/>
<path d="M104.691 202.134C104.691 202.134 96.2321 147.245 120.024 145.706C143.816 144.167 177.654 145.706 177.654 145.706C177.654 145.706 197.216 144.167 191.4 202.134C191.4 202.134 196.687 219.062 149.103 217.523C101.519 215.984 104.691 202.134 104.691 202.134Z" fill="#219653"/>
<path d="M321.467 224.549C321.467 234.12 315.603 237.462 308.368 237.462C301.134 237.462 295.269 234.12 295.269 224.549C295.269 214.977 308.368 202.801 308.368 202.801C308.368 202.801 321.467 214.977 321.467 224.549Z" fill="#219653"/>
<path d="M308.025 227.988L313.608 218.077L308.046 226.731L308.106 223.129L311.954 215.959L308.122 222.176L308.231 215.698L312.351 209.99L308.248 214.679L308.316 202.801L307.908 217.852L303.735 211.655L307.857 219.122L307.467 226.357L307.456 226.165L302.626 219.618L307.441 226.843L307.392 227.748L307.383 227.762L307.388 227.836L306.397 237.491H307.72L307.879 236.711L312.682 229.503L307.891 235.998L308.025 227.988Z" fill="#3F3D56"/>
<path d="M316.734 258.225H301.117L297.081 236.093H319.892L316.734 258.225Z" fill="#2F2E41"/>
<path d="M87.2606 108.597H54.7739V145.552H87.2606V108.597Z" fill="#3F3D56"/>
<path d="M82.2195 114.332H59.8149V139.818H82.2195V114.332Z" fill="#F2F2F2"/>
</svg>
