<svg width="26" height="20" viewBox="0 0 26 20" fill="none" xmlns="http://www.w3.org/2000/svg">
<path d="M21.3869 1.34766H4.87429C3.14783 1.34766 1.74316 2.50385 1.74316 3.92544V12.2449C1.74316 13.6633 3.14171 14.8177 4.86317 14.8227V18.598L11.4533 14.8227H21.3869C23.1133 14.8227 24.518 13.6663 24.518 12.2449V3.92544C24.518 2.50385 23.1133 1.34766 21.3869 1.34766ZM23.1835 12.2449C23.1835 13.0605 22.3776 13.7241 21.3869 13.7241H11.0346L6.19763 16.4952V13.7241H4.87429C3.88359 13.7241 3.07763 13.0605 3.07763 12.2449V3.92544C3.07763 3.1097 3.88359 2.44629 4.87429 2.44629H21.3869C22.3776 2.44629 23.1835 3.1097 23.1835 3.92544V12.2449Z" fill="#219653"/>
<path d="M7.83887 5.22949H18.4226V6.32813H7.83887V5.22949Z" fill="#219653"/>
<path d="M7.83887 7.57324H18.4226V8.67188H7.83887V7.57324Z" fill="#219653"/>
<path d="M7.83887 9.91699H18.4226V11.0156H7.83887V9.91699Z" fill="#219653"/>
</svg>
