<svg width="16" height="16" viewBox="0 0 16 16" fill="none" xmlns="http://www.w3.org/2000/svg">
<g clip-path="url(#clip0)">
<path d="M3.54594 9.66899L2.989 11.7481L0.953406 11.7912C0.345063 10.6628 0 9.37186 0 7.99999C0 6.67339 0.322625 5.42239 0.8945 4.32086H0.894937L2.70719 4.65311L3.50106 6.45449C3.33491 6.93889 3.24434 7.45889 3.24434 7.99999C3.24441 8.58724 3.35078 9.14989 3.54594 9.66899Z" fill="#FBBB00"/>
<path d="M15.8601 6.50549C15.952 6.98943 15.9999 7.48921 15.9999 7.99999C15.9999 8.57274 15.9397 9.13143 15.825 9.67034C15.4355 11.5042 14.4179 13.1055 13.0083 14.2387L13.0078 14.2382L10.7252 14.1218L10.4022 12.1051C11.3375 11.5565 12.0685 10.698 12.4536 9.67034H8.17578V6.50549H12.516H15.8601Z" fill="#518EF8"/>
<path d="M13.0081 14.2382L13.0086 14.2387C11.6376 15.3406 9.89602 16 8.00021 16C4.95361 16 2.30483 14.2971 0.953613 11.7912L3.54615 9.66901C4.22174 11.4721 5.96108 12.7556 8.00021 12.7556C8.87668 12.7556 9.6978 12.5187 10.4024 12.105L13.0081 14.2382Z" fill="#28B446"/>
<path d="M13.1064 1.84175L10.5148 3.9635C9.78553 3.50769 8.92353 3.24438 8.00003 3.24438C5.91475 3.24438 4.14288 4.58678 3.50113 6.4545L0.894969 4.32088H0.894531C2.22597 1.75384 4.90816 0 8.00003 0C9.94113 0 11.7209 0.691438 13.1064 1.84175Z" fill="#F14336"/>
</g>
<defs>
<clipPath id="clip0">
<rect width="16" height="16" fill="white"/>
</clipPath>
</defs>
</svg>
