<svg width="36" height="36" viewBox="0 0 36 36" fill="none" xmlns="http://www.w3.org/2000/svg">
<path d="M18 36C27.9411 36 36 27.9411 36 18C36 8.05887 27.9411 0 18 0C8.05888 0 0 8.05887 0 18C0 27.9411 8.05888 36 18 36Z" fill="#DB4437"/>
<path d="M8.0041 18.0117C7.9467 21.7666 9.86428 25.3499 12.5021 26.5185C14.9868 27.6444 18.0417 26.8021 19.695 23.9323C20.9022 21.9214 21.1765 19.2406 21.0458 16.736C18.918 16.7104 16.7901 16.7189 14.6654 16.7232C14.662 17.7456 14.6654 18.764 14.6686 19.7864C15.9427 19.8339 17.217 19.8121 18.4911 19.8467C18.1695 21.3332 17.4368 22.7166 16.3249 23.2534C14.178 24.5294 11.4386 22.8624 10.7631 19.8249C9.94764 16.9162 11.2826 13.406 13.4866 12.5599C14.8532 11.9113 16.2611 12.6415 17.4305 13.5997C18.0229 12.852 18.5773 12.0529 19.1219 11.2453C17.7933 9.74602 16.086 8.82675 14.3308 9.02865C10.8871 9.0839 7.87343 13.3717 8.0041 18.0117Z" fill="#DC4E41"/>
<path d="M25.1869 14.1443C25.1806 14.9994 25.1739 15.8587 25.1708 16.7134C24.5336 16.722 23.8999 16.7263 23.2659 16.7305C23.2659 17.5856 23.2659 18.436 23.2659 19.2911C23.8999 19.2954 24.537 19.2997 25.1708 19.3086C25.1771 20.1637 25.1771 21.0184 25.1834 21.8777C25.8143 21.8777 26.4483 21.8735 27.082 21.8777C27.0855 21.0184 27.0883 20.1637 27.095 19.3043C27.7287 19.3001 28.3659 19.2958 28.9999 19.2915C28.9999 18.4364 28.9999 17.586 28.9999 16.7309C28.3661 16.7266 27.729 16.7224 27.095 16.7138C27.0915 15.8587 27.0855 14.9994 27.082 14.1447C26.4483 14.1443 25.8174 14.1443 25.1869 14.1443Z" fill="#DC4E41"/>
<path d="M8.0041 18.0111C7.87343 13.3712 10.8868 9.08331 14.3306 9.02768C16.0857 8.82577 17.7933 9.74504 19.1216 11.2444C18.5767 12.0524 18.0224 12.851 17.4302 13.5987C16.2608 12.6406 14.8529 11.9104 13.4863 12.5589C11.282 13.4054 9.94706 16.9156 10.7628 19.8239C11.4383 22.8615 14.1777 24.5285 16.3246 23.2524C17.4362 22.7156 18.1692 21.3322 18.4908 19.8457C17.2167 19.8115 15.9424 19.8329 14.6683 19.7854C14.6651 18.7631 14.662 17.7446 14.6651 16.7222C16.7898 16.718 18.9177 16.7094 21.0455 16.7351C21.1762 19.24 20.9022 21.9208 19.6948 23.9313C18.0414 26.8011 14.9868 27.6434 12.5018 26.5175C9.86457 25.3493 7.9467 21.766 8.0041 18.0111Z" fill="white"/>
<path d="M25.1869 14.1443C25.8177 14.1443 26.4483 14.1443 27.082 14.1443C27.0855 14.9994 27.0915 15.8587 27.095 16.7134C27.7287 16.722 28.3659 16.7263 28.9999 16.7305C28.9999 17.5856 28.9999 18.436 28.9999 19.2911C28.3661 19.2954 27.729 19.2997 27.095 19.3039C27.0886 20.1633 27.0855 21.018 27.082 21.8774C26.4483 21.8731 25.814 21.8774 25.1834 21.8774C25.1774 21.018 25.1774 20.1633 25.1708 19.3082C24.537 19.2993 23.8999 19.2954 23.2659 19.2907C23.2659 18.4356 23.2659 17.5852 23.2659 16.7301C23.8999 16.7259 24.5339 16.7216 25.1708 16.713C25.1739 15.8587 25.1803 14.9994 25.1869 14.1443Z" fill="white"/>
</svg>
