<svg width="36" height="35" viewBox="0 0 36 35" fill="none" xmlns="http://www.w3.org/2000/svg">
<path d="M18 34.3632C27.9411 34.3632 36 26.6707 36 17.1816C36 7.69246 27.9411 0 18 0C8.05888 0 0 7.69246 0 17.1816C0 26.6707 8.05888 34.3632 18 34.3632Z" fill="white"/>
<path d="M8.0041 17.1927C7.9467 20.7769 9.86428 24.1972 12.5021 25.3127C14.9868 26.3874 18.0417 25.5834 19.6951 22.8441C20.9022 20.9246 21.1765 18.3658 21.0458 15.9751C18.918 15.9506 16.7901 15.9588 14.6654 15.9629C14.662 16.9387 14.6654 17.9109 14.6686 18.8868C15.9427 18.9321 17.217 18.9113 18.4911 18.9443C18.1695 20.3632 17.4368 21.6837 16.3249 22.1961C14.178 23.4141 11.4386 21.8229 10.7631 18.9235C9.94764 16.147 11.2826 12.7965 13.4866 11.9888C14.8532 11.3698 16.2611 12.0668 17.4305 12.9814C18.0229 12.2677 18.5773 11.505 19.1219 10.7341C17.7933 9.30296 16.086 8.42549 14.3308 8.61822C10.8871 8.67095 7.87343 12.7638 8.0041 17.1927Z" fill="black"/>
<path d="M25.1867 13.501C25.1803 14.3172 25.1737 15.1375 25.1705 15.9534C24.5333 15.9615 23.8996 15.9656 23.2656 15.9697C23.2656 16.7859 23.2656 17.5977 23.2656 18.4139C23.8996 18.418 24.5368 18.4221 25.1705 18.4307C25.1769 19.2469 25.1769 20.0627 25.1832 20.8831C25.814 20.8831 26.448 20.879 27.0817 20.8831C27.0852 20.0627 27.0881 19.2469 27.0947 18.4266C27.7284 18.4225 28.3656 18.4184 28.9996 18.4143C28.9996 17.5981 28.9996 16.7863 28.9996 15.9701C28.3659 15.966 27.7287 15.9619 27.0947 15.9537C27.0913 15.1375 27.0852 14.3172 27.0817 13.5013C26.448 13.501 25.8172 13.501 25.1867 13.501Z" fill="black"/>
<path d="M8.0041 17.1921C7.87343 12.7632 10.8868 8.67034 14.3306 8.61724C16.0857 8.42452 17.7933 9.30198 19.1216 10.7331C18.5767 11.5044 18.0224 12.2667 17.4302 12.9804C16.2608 12.0658 14.8529 11.3688 13.4863 11.9879C11.282 12.7959 9.94706 16.1464 10.7628 18.9225C11.4383 21.8219 14.1777 23.4131 16.3246 22.1951C17.4362 21.6827 18.1692 20.3622 18.4908 18.9433C17.2167 18.9107 15.9424 18.9311 14.6683 18.8858C14.6651 17.9099 14.662 16.9378 14.6652 15.9619C16.7898 15.9578 18.9177 15.9496 21.0455 15.9741C21.1762 18.3652 20.9022 20.924 19.6948 22.8431C18.0414 25.5824 14.9868 26.3864 12.5018 25.3117C9.86457 24.1966 7.9467 20.7763 8.0041 17.1921Z" fill="black"/>
<path d="M25.1867 13.501C25.8175 13.501 26.448 13.501 27.0817 13.501C27.0852 14.3171 27.0913 15.1374 27.0947 15.9532C27.7284 15.9613 28.3656 15.9654 28.9996 15.9695C28.9996 16.7857 28.9996 17.5974 28.9996 18.4135C28.3659 18.4176 27.7287 18.4217 27.0947 18.4258C27.0884 19.246 27.0852 20.0618 27.0817 20.8821C26.448 20.878 25.8137 20.8821 25.1832 20.8821C25.1771 20.0618 25.1771 19.246 25.1705 18.4299C24.5368 18.4213 23.8996 18.4176 23.2656 18.4132C23.2656 17.597 23.2656 16.7853 23.2656 15.9691C23.8996 15.9651 24.5336 15.961 25.1705 15.9528C25.1737 15.1374 25.18 14.3171 25.1867 13.501Z" fill="black"/>
</svg>
