<svg width="495" height="326" viewBox="0 0 495 326" fill="none" xmlns="http://www.w3.org/2000/svg">
<g clip-path="url(#clip0)">
<path opacity="0.1" d="M443.302 324.447C467.243 324.447 486.651 320.264 486.651 315.105C486.651 309.945 467.243 305.762 443.302 305.762C419.361 305.762 399.953 309.945 399.953 315.105C399.953 320.264 419.361 324.447 443.302 324.447Z" fill="#219653"/>
<path opacity="0.1" d="M60.6398 326.004C84.581 326.004 103.989 321.821 103.989 316.661C103.989 311.501 84.581 307.318 60.6398 307.318C36.6986 307.318 17.2904 311.501 17.2904 316.661C17.2904 321.821 36.6986 326.004 60.6398 326.004Z" fill="#219653"/>
<path d="M296.505 87.9763C296.505 87.9763 290.412 85.8191 271.039 93.5752C251.666 101.331 249.232 100.341 244.226 99.1551C239.221 97.9689 236.432 97.6893 231.037 91.2215C231.037 91.2215 227.243 73.284 223.576 70.5034C219.908 67.7229 204.306 72.0864 204.306 72.0864C204.306 72.0864 185.604 75.8303 182.041 54.0242C182.041 54.0242 184.569 37.5865 181.127 32.543C181.127 32.543 188.055 35.1611 199.548 30.9373C211.04 26.7136 220.198 35.4708 220.198 35.4708C220.198 35.4708 223.091 42.0066 222.796 45.9017C222.502 49.7967 224.325 51.2587 229.798 49.3773C229.798 49.3773 232.483 46.0414 228.677 40.5295C224.87 35.0175 222.155 30.9071 223.221 26.6267C224.286 22.3464 227.334 16.4264 237.146 13.4418C246.959 10.4573 260.287 9.89814 266.687 7.57472C273.087 5.2513 274.633 3.74014 274.633 3.74014C274.633 3.74014 270.688 7.19315 279.976 21.7797C289.264 36.3662 283.341 42.7018 283.341 42.7018C283.341 42.7018 278.404 52.9626 256.624 52.1466C256.624 52.1466 235.635 52.8152 247.097 60.5826C247.097 60.5826 254.428 59.2793 265.384 56.2418C276.339 53.2044 284.25 65.7433 286.212 74.4703C288.173 83.1972 296.505 87.9763 296.505 87.9763Z" fill="#219653"/>
<path d="M268.285 14.8132L268.402 14.7868C269.242 17.5711 259.858 28.765 251.843 37.6545L251.748 37.5903C263.063 25.0438 268.939 16.9553 268.285 14.8132Z" fill="#444053"/>
<path d="M251.917 37.4051L251.964 37.5185C245.56 44.6247 237.506 53.1024 231.058 59.3813C230.443 59.9819 229.833 60.6091 229.244 61.2513L229.062 61.1191C229.651 60.4769 230.266 59.8459 230.881 59.2301C237.324 52.9701 245.517 44.5076 251.917 37.4051Z" fill="#444053"/>
<path d="M229.218 60.9529L229.343 61.1418C217.609 73.9225 216.834 93.7678 216.786 93.9416L214.309 91.4482C214.361 91.2744 217.401 73.8204 229.218 60.9529Z" fill="#444053"/>
<path d="M282.895 81.0438C282.895 81.0438 269.038 74.7687 258.278 77.0203C247.517 79.272 223.203 69.0641 223.203 69.0641C223.203 69.0641 212.893 65.407 210.823 61.2438C210.823 61.2438 203.752 54.7231 203.349 51.3456C202.947 47.9682 196.062 39.483 191.571 39.1543" stroke="#444053" stroke-miterlimit="10"/>
<path d="M280.894 87.0847C280.894 87.0847 273.914 82.9894 274.737 78.2179" stroke="#444053" stroke-miterlimit="10"/>
<path d="M270.203 92.3776C270.203 92.3776 260.244 89.2192 259.239 76.8466" stroke="#444053" stroke-miterlimit="10"/>
<path d="M254.125 95.5812C254.125 95.5812 244.599 88.6865 247.764 76.6426" stroke="#444053" stroke-miterlimit="10"/>
<path d="M234.804 92.2113C234.804 92.2113 228.46 80.6094 234.102 73.0611" stroke="#444053" stroke-miterlimit="10"/>
<path d="M283.059 73.3973C283.059 73.3973 275.85 75.3921 277.395 78.6864" stroke="#444053" stroke-miterlimit="10"/>
<path d="M274.347 61.9842C274.347 61.9842 264.704 64.6552 264.474 76.5557" stroke="#444053" stroke-miterlimit="10"/>
<path d="M260.924 59.2377C260.924 59.2377 252.151 68.6825 252.796 77.2772" stroke="#444053" stroke-miterlimit="10"/>
<path d="M245.543 62.9438C245.543 62.9438 236.826 70.2125 237.939 74.2587" stroke="#444053" stroke-miterlimit="10"/>
<path d="M240.286 60.3749C240.286 60.3749 232.11 61.6556 230.967 59.3133" stroke="#444053" stroke-miterlimit="10"/>
<path d="M229.664 51.765C229.664 51.765 233.795 56.5365 234.86 55.4673" stroke="#444053" stroke-miterlimit="10"/>
<path d="M270.606 48.7464C270.606 48.7464 250.003 50.0422 245.335 44.6323" stroke="#444053" stroke-miterlimit="10"/>
<path d="M225.33 27.7186C225.33 27.7186 234.999 45.8261 242.018 48.1193" stroke="#444053" stroke-miterlimit="10"/>
<path d="M235.471 19.0936C235.471 19.0936 241.412 35.7504 248.769 40.9488" stroke="#444053" stroke-miterlimit="10"/>
<path d="M279.279 35.0024C279.279 35.0024 263.608 40.8695 254.199 34.9344" stroke="#444053" stroke-width="0.75" stroke-miterlimit="10"/>
<path d="M249.431 15.5423C249.431 15.5423 253.012 27.7866 257.836 30.7447" stroke="#444053" stroke-width="0.75" stroke-miterlimit="10"/>
<path d="M276.911 21.2885C276.911 21.2885 268.107 24.1975 264.816 21.9686" stroke="#444053" stroke-width="0.75" stroke-miterlimit="10"/>
<path d="M222.121 55.7658C222.121 55.7658 222.121 66.4384 218.791 67.1978" stroke="#444053" stroke-miterlimit="10"/>
<path d="M194.897 69.593C194.897 69.593 208.121 70.5828 214.223 64.6288" stroke="#444053" stroke-miterlimit="10"/>
<path d="M218.709 43.1589C218.709 43.1589 215.509 53.9826 206.679 56.8992" stroke="#444053" stroke-miterlimit="10"/>
<path d="M186.964 58.1912C186.964 58.1912 196.326 61.0322 204.376 53.8013" stroke="#444053" stroke-miterlimit="10"/>
<path d="M208.299 33.8539C208.299 33.8539 207.433 43.0456 201.687 47.3486" stroke="#444053" stroke-miterlimit="10"/>
<path d="M187.311 44.1827C187.311 44.1827 195.079 44.2318 196.898 42.0217" stroke="#444053" stroke-miterlimit="10"/>
<path opacity="0.1" d="M256.334 51.9304C225.416 56.4299 194.451 54.0083 164.642 50.6535C134.833 47.2987 105.093 43.0145 74.111 43.8532C54.1922 44.3972 32.0347 47.8125 18.2517 58.2924C4.9927 68.3757 3.09608 82.1613 3.22166 94.6284C3.31692 104.005 4.32586 113.718 11.6049 121.259C16.6582 126.491 24.3832 130.292 30.2247 135.131C50.5765 151.973 44.8044 178.064 31.9177 200.157C25.8555 210.523 18.4466 220.697 14.3805 231.325C10.3145 241.952 9.91178 253.399 17.5675 262.198C25.1627 270.921 39.6904 275.946 54.8071 278.639C85.5037 284.106 119.574 281.284 152.526 277.359C225.464 268.628 297.587 254.506 369.503 240.411C396.12 235.197 422.855 229.953 448.464 222.277C462.684 218.023 477.151 212.669 486.257 204.203C497.815 193.455 497.918 178.619 486.5 169.62C467.343 154.508 424.487 157.349 409.596 140.152C401.395 130.707 404.733 118.006 410.999 106.842C424.422 82.8904 450.728 59.3729 446.939 35.3038C444.341 18.7717 425.99 4.92937 401.611 1.10235C376.063 -2.90602 343.409 3.78844 328.959 20.2261C314.081 37.1965 283.631 47.9636 256.334 51.9304Z" fill="#219653"/>
<path d="M439.136 56.7103H38.4433C35.4563 56.7103 33.0349 58.8229 33.0349 61.4289V255.368C33.0349 257.974 35.4563 260.087 38.4433 260.087H439.136C442.123 260.087 444.545 257.974 444.545 255.368V61.4289C444.545 58.8229 442.123 56.7103 439.136 56.7103Z" fill="url(#paint0_linear)"/>
<path d="M438.53 59.5702H39.0971C36.1101 59.5702 33.6887 61.6828 33.6887 64.2888V254.692C33.6887 257.298 36.1101 259.41 39.0971 259.41H438.53C441.517 259.41 443.939 257.298 443.939 254.692V64.2888C443.939 61.6828 441.517 59.5702 438.53 59.5702Z" fill="white"/>
<path d="M438.53 59.5702H39.0971C36.1101 59.5702 33.6887 61.6828 33.6887 64.2888V254.692C33.6887 257.298 36.1101 259.41 39.0971 259.41H438.53C441.517 259.41 443.939 257.298 443.939 254.692V64.2888C443.939 61.6828 441.517 59.5702 438.53 59.5702Z" fill="white"/>
<path opacity="0.04" d="M438.53 59.5702H39.0971C36.1101 59.5702 33.6887 61.6828 33.6887 64.2888V254.692C33.6887 257.298 36.1101 259.41 39.0971 259.41H438.53C441.517 259.41 443.939 257.298 443.939 254.692V64.2888C443.939 61.6828 441.517 59.5702 438.53 59.5702Z" fill="#5A5773" fill-opacity="0.81"/>
<path d="M441.856 57.277H35.7543C35.2019 57.277 34.6722 57.4684 34.2816 57.8092C33.8909 58.15 33.6715 58.6122 33.6715 59.0941V66.7784H443.921V59.1093C443.923 58.8706 443.872 58.6339 443.769 58.4127C443.667 58.1915 443.515 57.99 443.323 57.8199C443.132 57.6497 442.903 57.5142 442.651 57.4211C442.4 57.3279 442.129 57.2789 441.856 57.277Z" fill="#5A5773"/>
<path d="M41.8815 64.4814C43.436 64.4814 44.6961 63.382 44.6961 62.0258C44.6961 60.6696 43.436 59.5702 41.8815 59.5702C40.327 59.5702 39.0669 60.6696 39.0669 62.0258C39.0669 63.382 40.327 64.4814 41.8815 64.4814Z" fill="white"/>
<path d="M49.4594 64.4814C51.0139 64.4814 52.274 63.382 52.274 62.0258C52.274 60.6696 51.0139 59.5702 49.4594 59.5702C47.9049 59.5702 46.6448 60.6696 46.6448 62.0258C46.6448 63.382 47.9049 64.4814 49.4594 64.4814Z" fill="white"/>
<path d="M57.0372 64.4814C58.5916 64.4814 59.8518 63.382 59.8518 62.0258C59.8518 60.6696 58.5916 59.5702 57.0372 59.5702C55.4827 59.5702 54.2225 60.6696 54.2225 62.0258C54.2225 63.382 55.4827 64.4814 57.0372 64.4814Z" fill="white"/>
<path d="M398.822 111.018H65.5632C63.1263 111.018 61.1508 112.741 61.1508 114.867V255.557C61.1508 257.683 63.1263 259.407 65.5632 259.407H398.822C401.259 259.407 403.235 257.683 403.235 255.557V114.867C403.235 112.741 401.259 111.018 398.822 111.018Z" fill="#444053"/>
<path opacity="0.2" d="M143.372 76.8617H48.3161C47.393 76.8617 46.6447 77.5146 46.6447 78.3199V84.4137C46.6447 85.2191 47.393 85.872 48.3161 85.872H143.372C144.295 85.872 145.044 85.2191 145.044 84.4137V78.3199C145.044 77.5146 144.295 76.8617 143.372 76.8617Z" fill="#5A5773"/>
<path opacity="0.2" d="M328.92 128.241H233.864C232.941 128.241 232.193 128.894 232.193 129.7V135.793C232.193 136.599 232.941 137.252 233.864 137.252H328.92C329.844 137.252 330.592 136.599 330.592 135.793V129.7C330.592 128.894 329.844 128.241 328.92 128.241Z" fill="#219653"/>
<path opacity="0.2" d="M384.169 153.47H233.864C232.941 153.47 232.193 154.123 232.193 154.928V161.022C232.193 161.828 232.941 162.481 233.864 162.481H384.169C385.092 162.481 385.841 161.828 385.841 161.022V154.928C385.841 154.123 385.092 153.47 384.169 153.47Z" fill="#219653"/>
<path opacity="0.2" d="M384.169 168.204H233.864C232.941 168.204 232.193 168.857 232.193 169.662V175.756C232.193 176.562 232.941 177.214 233.864 177.214H384.169C385.092 177.214 385.841 176.562 385.841 175.756V169.662C385.841 168.857 385.092 168.204 384.169 168.204Z" fill="#219653"/>
<path opacity="0.2" d="M384.169 182.938H233.864C232.941 182.938 232.193 183.591 232.193 184.396V190.49C232.193 191.295 232.941 191.948 233.864 191.948H384.169C385.092 191.948 385.841 191.295 385.841 190.49V184.396C385.841 183.591 385.092 182.938 384.169 182.938Z" fill="#219653"/>
<path opacity="0.2" d="M384.169 197.672H233.864C232.941 197.672 232.193 198.325 232.193 199.13V205.224C232.193 206.029 232.941 206.682 233.864 206.682H384.169C385.092 206.682 385.841 206.029 385.841 205.224V199.13C385.841 198.325 385.092 197.672 384.169 197.672Z" fill="#219653"/>
<path opacity="0.2" d="M384.169 213.917H81.3683C80.4452 213.917 79.6969 214.57 79.6969 215.375V221.469C79.6969 222.274 80.4452 222.927 81.3683 222.927H384.169C385.092 222.927 385.84 222.274 385.84 221.469V215.375C385.84 214.57 385.092 213.917 384.169 213.917Z" fill="#219653"/>
<path opacity="0.2" d="M384.169 228.651H81.3683C80.4452 228.651 79.6969 229.304 79.6969 230.109V236.203C79.6969 237.008 80.4452 237.661 81.3683 237.661H384.169C385.092 237.661 385.84 237.008 385.84 236.203V230.109C385.84 229.304 385.092 228.651 384.169 228.651Z" fill="#219653"/>
<path opacity="0.2" d="M384.169 243.385H81.3683C80.4452 243.385 79.6969 244.038 79.6969 244.843V250.937C79.6969 251.742 80.4452 252.395 81.3683 252.395H384.169C385.092 252.395 385.84 251.742 385.84 250.937V244.843C385.84 244.038 385.092 243.385 384.169 243.385Z" fill="#219653"/>
<path d="M315.8 249.342C315.8 249.342 318.368 252.27 314.613 256.694C310.859 261.118 307.768 264.851 309.019 267.609C309.019 267.609 314.678 259.395 319.29 259.297C323.902 259.199 320.871 254.28 315.8 249.342Z" fill="#219653"/>
<path opacity="0.1" d="M315.8 249.342C316.024 249.625 316.2 249.934 316.324 250.26C320.823 254.869 323.218 259.173 318.896 259.278C314.869 259.38 310.037 265.663 308.88 267.246C308.917 267.374 308.963 267.501 309.019 267.624C309.019 267.624 314.678 259.41 319.29 259.312C323.902 259.214 320.871 254.28 315.8 249.342Z" fill="black"/>
<path d="M320.572 253.075C320.572 254.106 320.442 254.941 320.277 254.941C320.113 254.941 319.983 254.106 319.983 253.075C319.983 252.044 320.147 252.531 320.312 252.531C320.477 252.531 320.572 252.044 320.572 253.075Z" fill="#FFD037"/>
<path d="M322.213 254.307C321.174 254.798 320.269 255.096 320.191 254.971C320.113 254.847 320.892 254.344 321.923 253.838C322.953 253.332 322.551 253.702 322.629 253.838C322.707 253.974 323.248 253.812 322.213 254.307Z" fill="#FFD037"/>
<path d="M302.238 249.342C302.238 249.342 299.67 252.27 303.42 256.694C307.17 261.118 310.27 264.851 309.019 267.609C309.019 267.609 303.355 259.395 298.748 259.297C294.14 259.199 297.167 254.28 302.238 249.342Z" fill="#219653"/>
<path opacity="0.1" d="M302.238 249.342C302.012 249.624 301.834 249.934 301.71 250.26C297.215 254.869 294.82 259.173 299.142 259.278C303.169 259.38 307.997 265.663 309.153 267.246C309.118 267.374 309.074 267.501 309.019 267.624C309.019 267.624 303.355 259.41 298.748 259.312C294.14 259.214 297.167 254.28 302.238 249.342Z" fill="black"/>
<path d="M297.462 253.075C297.462 254.106 297.596 254.941 297.76 254.941C297.925 254.941 298.055 254.106 298.055 253.075C298.055 252.044 297.89 252.538 297.73 252.538C297.57 252.538 297.462 252.044 297.462 253.075Z" fill="#FFD037"/>
<path d="M295.825 254.307C296.864 254.798 297.769 255.096 297.847 254.971C297.925 254.847 297.145 254.344 296.115 253.838C295.084 253.332 295.487 253.702 295.409 253.838C295.331 253.974 294.785 253.812 295.825 254.307Z" fill="#FFD037"/>
<path opacity="0.1" d="M309.019 290.015C323.846 290.015 335.866 288.407 335.866 286.423C335.866 284.438 323.846 282.83 309.019 282.83C294.191 282.83 282.172 284.438 282.172 286.423C282.172 288.407 294.191 290.015 309.019 290.015Z" fill="#219653"/>
<path d="M322.845 263.661L322.715 264.575L322.538 265.867L322.46 266.407L322.282 267.699L322.204 268.239L322.022 269.528L319.97 284.224C319.784 285.535 317.328 286.559 314.341 286.559H303.68C300.714 286.559 298.263 285.535 298.081 284.224L296.02 269.539L295.842 268.251L295.764 267.711L295.582 266.419L295.509 265.878L295.327 264.586L295.197 263.672C295.097 262.916 296.427 262.304 298.102 262.304H319.935C321.611 262.293 322.94 262.916 322.845 263.661Z" fill="#65617D"/>
<path d="M322.707 264.575L322.529 265.867H295.509L295.327 264.575H322.707Z" fill="#9D9CB5"/>
<path d="M322.451 266.403L322.273 267.695H295.764L295.582 266.403H322.451Z" fill="#9D9CB5"/>
<path d="M322.195 268.236L322.014 269.528H296.02L295.842 268.236H322.195Z" fill="#9D9CB5"/>
<path opacity="0.2" d="M206.788 123.243H83.3776C81.3448 123.243 79.6969 124.681 79.6969 126.454V203.728C79.6969 205.501 81.3448 206.939 83.3776 206.939H206.788C208.82 206.939 210.468 205.501 210.468 203.728V126.454C210.468 124.681 208.82 123.243 206.788 123.243Z" fill="#219653"/>
<path d="M487.167 216.327C487.331 215.949 486.11 213.788 486.11 213.683C486.11 213.577 484.85 212.379 484.85 211.711C484.85 211.042 483.183 209.595 483.183 209.595C483.183 209.595 480.944 208.786 480.702 207.022C480.459 205.258 478.021 205.228 478.017 205.228C478.017 205.228 478.017 205.069 478.017 204.823C478.066 204.127 477.965 203.428 477.718 202.764C477.431 202.277 476.934 201.909 476.337 201.741C476.337 201.741 476.09 200.365 475.605 199.942C475.335 199.695 475.14 199.392 475.04 199.062C474.94 198.732 474.938 198.385 475.034 198.053C475.28 197.388 474.709 195.696 473.531 195.447C472.353 195.197 471.007 194.812 471.007 194.812L470.682 194.861L470.522 194.812C470.236 194.86 469.946 194.891 469.656 194.906C469.407 194.913 469.163 194.843 468.967 194.71C468.56 194.332 465.265 193.577 464.637 193.577C464.009 193.577 462.277 192.87 462.277 192.87C462.277 192.87 461.056 192.062 460.545 191.706C460.034 191.351 459.146 190.063 459.012 189.867V189.84C458.863 189.54 458.74 189.231 458.644 188.915C459.239 188.371 459.748 187.76 460.155 187.097C460.198 187.029 460.237 186.961 460.276 186.89C460.366 186.89 460.455 186.878 460.541 186.856L460.649 186.818C460.854 186.725 461.036 186.598 461.184 186.443C461.333 186.289 461.445 186.111 461.515 185.919C461.545 185.842 461.571 185.764 461.593 185.684C461.593 185.658 461.593 185.632 461.593 185.605L461.632 185.446C461.63 185.416 461.63 185.386 461.632 185.356L461.658 185.197V185.106C461.658 185.038 461.658 184.974 461.688 184.906C461.714 184.653 461.756 184.4 461.814 184.151C462.056 183.195 462.719 182.386 463.182 181.506C463.247 181.381 463.312 181.253 463.368 181.128C463.424 181.004 463.481 180.845 463.528 180.701L463.567 180.569C463.598 180.463 463.624 180.358 463.65 180.252C463.676 180.146 463.65 180.157 463.68 180.108C463.706 179.965 463.728 179.817 463.745 179.666C463.822 178.823 463.674 177.976 463.312 177.192C463.009 176.531 462.554 175.934 462.247 175.273C461.779 174.271 461.653 173.134 461.086 172.178C460.624 171.403 459.86 170.796 458.932 170.467C458.004 170.137 456.972 170.107 456.02 170.38C455.154 170.667 454.366 171.223 453.469 171.472C452.266 171.808 450.984 171.555 449.737 171.408C448.49 171.26 447.139 171.242 446.117 171.952C444.965 172.768 444.653 174.302 443.571 175.197C443.138 175.575 442.553 175.813 442.072 176.16C441.734 176.397 441.474 176.707 441.319 177.06L441.293 177.131C441.282 177.162 441.273 177.194 441.267 177.226C441.257 177.261 441.25 177.296 441.245 177.332C441.243 177.355 441.243 177.379 441.245 177.403C441.237 177.466 441.237 177.529 441.245 177.592C441.251 177.652 441.261 177.711 441.276 177.77V177.819C441.276 177.868 441.306 177.917 441.328 177.966C441.349 178.015 441.328 177.985 441.328 177.993C441.328 178 441.375 178.102 441.401 178.155L441.44 178.234C441.44 178.257 441.44 178.28 441.475 178.299C441.63 178.561 441.756 178.836 441.851 179.118C441.902 179.298 441.888 179.486 441.812 179.659C441.71 179.855 441.562 180.031 441.379 180.176C440.569 180.91 439.944 181.784 439.543 182.741C439.494 182.852 439.451 182.962 439.414 183.07H439.47C439.586 183.099 439.705 183.121 439.825 183.134C439.893 183.138 439.961 183.138 440.028 183.134C440.307 183.149 440.587 183.131 440.86 183.082L441.068 183.036C441.351 182.972 441.626 182.884 441.89 182.775C441.89 182.847 441.89 182.919 441.89 182.991C441.89 183.063 441.89 183.07 441.89 183.112C441.893 184.671 442.394 186.198 443.337 187.522C444.281 188.846 445.629 189.915 447.23 190.607C447.23 190.683 447.251 190.758 447.264 190.834L447.29 191.026L447.182 190.936C447.182 190.936 446.45 190.618 445.757 191.533C445.249 192.133 444.559 192.597 443.765 192.874C443.765 192.874 436.361 193.894 436.075 194.74L432.611 194.918C432.611 194.918 431.39 195.057 431.269 197.279C431.147 199.5 430.498 199.708 430.498 199.708C430.498 199.708 429.073 201.896 429.199 203.021C429.214 203.365 429.119 203.705 428.925 204.004C428.731 204.303 428.444 204.549 428.099 204.714L427.939 206.724C427.939 206.724 426.596 206.546 426.207 207.921C426.052 208.649 425.705 209.336 425.193 209.927C425.193 209.927 422.955 211.552 422.833 212.923L421.448 213.679C421.448 213.679 418.235 213.044 417.503 211.918C417.503 211.918 417.416 211.843 417.278 211.733V211.707C416.797 211.329 415.779 210.483 415.935 210.675C416.031 210.852 416.054 211.052 416 211.242L415.762 211.012L415.121 210.392C415.121 210.392 409.925 206.146 406.894 205.809C406.855 205.741 406.656 205.054 406.136 205.488C405.706 205.833 405.362 206.252 405.126 206.718C404.89 207.184 404.766 207.687 404.763 208.197C404.76 208.707 404.878 209.211 405.109 209.679C405.34 210.147 405.68 210.569 406.106 210.917L410.973 214.88L411.099 214.96L412.142 216.131C411.965 216.508 411.817 216.856 411.709 217.181V217.215L411.631 217.419C411.622 217.441 411.615 217.464 411.609 217.487C411.584 217.555 411.562 217.619 411.54 217.683L411.501 217.797C411.501 217.819 411.501 217.842 411.501 217.865C411.384 218.22 411.311 218.492 411.276 218.643L411.003 218.567L411.267 218.669V218.703C411.267 218.753 411.267 218.779 411.267 218.779L411.519 218.873C412.943 219.414 420.053 222.138 420.417 222.549C420.781 222.961 423.509 224.348 425.951 223.218C428.393 222.088 428.917 220.366 428.917 220.366C428.917 220.366 431.277 217.51 431.359 217.086C431.442 216.663 433.269 216.172 433.269 216.172C433.269 216.172 433.434 220.891 432.498 222.621C431.563 224.351 429.814 231.994 429.814 231.994C429.928 231.98 430.045 231.98 430.16 231.994L430.056 232.436C430.199 232.413 430.346 232.413 430.489 232.436C430.359 233.305 429.623 237.347 429.623 237.347C429.623 237.347 429.381 239.18 428.974 239.814C428.566 240.449 428.541 243.762 428.541 243.762L427.887 246.158C427.887 246.158 427.973 246.324 428.133 246.569C428.572 247.385 429.21 248.106 430.004 248.681C429.952 249.058 429.841 249.426 429.675 249.777C429.422 250.312 429.311 250.891 429.35 251.469C429.35 251.469 428.662 254.182 428.74 254.956C428.818 255.731 428.307 257.635 428.307 257.635L427.575 263.766C427.575 263.766 427.09 269.086 427.332 270.533C427.449 271.667 427.393 272.811 427.168 273.933C427.168 273.933 427.657 278.126 427.536 278.583C427.415 279.041 426.804 281.016 427.168 282.108C427.532 283.2 427.332 286.196 427.332 286.196C427.332 286.196 427.575 290.144 427.861 291.413C428.013 292.374 427.986 293.35 427.778 294.303C427.778 294.303 427.493 297.016 427.371 297.016C427.25 297.016 426.194 298.882 428.346 300.714C430.498 302.547 429.164 302.263 429.164 302.263C429.164 302.263 427.432 301.508 427.657 303.042C427.848 304.481 428.116 304.107 428.142 304.065L427.735 305.225L428.021 305.259L427.787 305.505C427.542 305.78 427.266 306.033 426.964 306.26C426.648 306.53 426.459 306.895 426.436 307.28C426.436 307.28 423.427 310.137 420.621 311.58C419.144 312.335 417.871 312.981 417.317 313.518C416.814 313.994 416.884 314.379 417.936 314.681C420.131 315.316 423.998 315.633 426.761 314.821C428.416 314.343 429.906 313.508 431.091 312.392C431.091 312.392 432.823 311.614 434.555 311.897C436.287 312.18 439.682 310.242 439.682 310.242L439.617 309.744L439.44 308.3C439.325 308.18 439.24 308.039 439.191 307.888C439.142 307.738 439.129 307.579 439.154 307.424C439.175 306.997 439.127 306.57 439.011 306.155C438.981 306.015 438.95 305.875 438.92 305.747L439.232 305.694C439.232 305.694 438.829 303.899 439.561 303.544C440.293 303.189 440.085 298.576 440.085 298.576C440.085 298.576 439.154 297.518 438.664 297.344C438.175 297.171 438.621 294.98 438.708 294.7C438.794 294.42 439.44 288.954 439.44 288.954C439.44 288.954 439.193 287.231 439.517 286.491C439.842 285.75 439.11 282.894 439.11 282.894C439.043 282.763 439.026 282.617 439.063 282.477C439.1 282.337 439.188 282.212 439.314 282.119C439.747 281.696 439.6 277.926 439.6 277.926C439.6 277.926 439.561 276.037 439.561 275.527C439.561 275.017 440.046 273.238 440.496 272.641C440.946 272.044 440.656 270.174 440.656 270.174L440.682 270.034C440.682 269.981 440.682 269.913 440.717 269.834L440.752 269.645C440.95 268.612 441.216 267.591 441.548 266.585C442.077 265.108 442.687 262.501 442.687 262.501L446.467 253.895L446.511 253.793C446.511 253.793 448.243 256.611 448.243 259.222C448.243 259.222 448.676 262.357 448.572 263.203C448.468 264.05 448.853 268.028 448.853 268.028C448.853 268.028 449.382 273.736 449.382 273.982C449.382 274.227 450.036 278.632 450.443 279.305C450.85 279.977 450.036 282.018 449.789 282.229C449.542 282.441 449.871 287.62 449.871 287.62C449.871 287.62 449.26 291.708 449.139 292.554C449.018 293.4 448.529 296.642 448.936 297.911C449.343 299.181 449.178 299.354 449.178 299.354C449.178 299.354 450.646 300.661 449.789 300.767C449.478 300.827 449.185 300.943 448.929 301.109C448.674 301.275 448.462 301.487 448.308 301.73C448.154 301.973 448.061 302.242 448.036 302.519C448.01 302.796 448.053 303.075 448.161 303.336C448.67 304.626 449.269 305.888 449.953 307.114L450.629 306.99V307.409L450.676 309.509C450.676 309.509 450.962 311.515 450.798 311.976C450.681 312.309 450.516 313.888 450.438 314.715C450.408 315.018 450.391 315.218 450.391 315.218C450.391 315.218 450.391 317.084 454.907 316.521C459.423 315.958 460.233 314.406 460.233 314.406L460.268 314.213C460.333 313.858 460.48 313.102 460.601 312.679C460.761 312.116 459.302 309.577 459.302 309.577C459.302 309.577 459.06 307.851 458.653 307.466C458.482 307.237 458.369 306.98 458.323 306.71C458.289 306.566 458.254 306.419 458.228 306.275C458.33 306.286 458.431 306.301 458.531 306.321C458.531 306.321 458.284 305.089 459.224 304.7C460.164 304.311 459.913 303.502 459.791 303.151C459.67 302.8 460.155 300.824 460.155 300.824C460.086 300.627 460.08 300.418 460.137 300.218C460.194 300.018 460.313 299.836 460.48 299.691C461.051 299.196 461.497 295.743 461.497 295.743L461.58 282.422C461.58 282.422 461.866 280.061 461.541 279.109C461.216 278.156 460.891 276.324 461.337 275.829C461.783 275.334 461.376 273.049 461.376 273.049C461.376 273.049 461.376 268.221 461.987 267.004C462.597 265.788 462.394 258.228 462.394 258.228L462.554 253.26C462.554 253.26 463.883 252.164 463.572 246.46C464.988 246.38 466.603 246.335 466.828 246.509C467.261 246.826 470.162 248.447 471.873 247.423C472.579 247 473.257 246.542 473.903 246.052L473.185 235.474C473.618 236.063 473.903 236.452 473.903 236.452C473.903 234.975 478.706 230.181 478.706 230.181C478.706 230.181 483.179 225.141 484.153 224.544C485.127 223.947 487.041 220.766 487.041 220.766C487.324 220.162 487.651 219.574 488.02 219.006C488.47 218.405 487.007 216.713 487.167 216.327ZM476.675 220.026C475.454 220.132 472.89 222.564 472.851 223.093C472.762 223.442 472.577 223.767 472.31 224.038C472.31 223.826 472.271 223.611 472.249 223.392C471.964 220.275 471.652 216.482 471.816 216.116C472.059 215.481 471.977 212.625 471.977 212.625L472.024 212.568C472.843 214.782 475.389 217.389 475.389 217.389C475.389 217.389 475.822 218.522 476.367 218.549C476.913 218.575 476.675 220.026 476.675 220.026Z" fill="url(#paint1_linear)"/>
<path d="M411.462 219.221C411.462 219.221 412.947 212.421 417.715 212.421L421.205 218.681L418.88 220.079C418.88 220.079 413.826 220.2 411.462 219.221Z" fill="#65617D"/>
<path opacity="0.1" d="M421.205 218.662L418.88 220.06C418.88 220.06 415.325 220.158 412.783 219.614C412.329 219.526 411.887 219.4 411.462 219.236L411.488 219.127V219.104C411.705 218.252 412.007 217.417 412.389 216.611C412.536 216.305 412.701 215.991 412.882 215.677C413.58 214.506 414.563 213.354 415.914 212.787C416.409 212.569 416.949 212.441 417.503 212.409H417.715L417.793 212.549L418.971 214.665L421.205 218.662Z" fill="black"/>
<path d="M460.809 246.849C460.809 246.849 465.819 246.43 466.261 246.747C466.702 247.064 469.547 248.67 471.228 247.654C472.908 246.637 471.79 243.12 471.79 242.969C471.79 242.818 471.63 237.827 471.63 237.827L468.625 234.295L464.858 228.107L457.159 227.442L457.358 237.264L457.319 242.3L460.809 246.849Z" fill="#65617D"/>
<path opacity="0.1" d="M460.809 246.849C460.809 246.849 465.819 246.43 466.261 246.747C466.702 247.064 469.547 248.67 471.228 247.654C472.908 246.637 471.79 243.12 471.79 242.969C471.79 242.818 471.63 237.827 471.63 237.827L468.625 234.295L464.858 228.107L457.159 227.442L457.358 237.264L457.319 242.3L460.809 246.849Z" fill="black"/>
<path d="M416.715 212.228C416.715 212.228 416.312 216.493 413.251 216.565C413.251 216.565 412.385 216.112 411.224 215.352C408.548 213.603 404.296 210.245 405.474 207.12C407.158 202.644 415.333 210.898 415.333 210.898L415.966 211.514L416.715 212.228Z" fill="#A8815D"/>
<path opacity="0.1" d="M416.715 212.228C416.715 212.228 416.312 216.493 413.251 216.565C413.251 216.565 412.385 216.112 411.224 215.352L410.964 215.062C411.483 215.292 412.054 215.421 412.636 215.439C413.093 215.455 413.545 215.349 413.932 215.135C414.319 214.921 414.622 214.609 414.801 214.242C415.129 213.692 415.418 213.126 415.667 212.545C415.81 212.207 415.913 211.856 415.974 211.499L416.715 212.228Z" fill="black"/>
<path d="M415.39 219.958L414.706 219.202L412.398 216.611L411.224 215.284C411.741 215.516 412.31 215.645 412.891 215.662C413.349 215.68 413.802 215.574 414.189 215.36C414.576 215.146 414.879 214.833 415.056 214.465C415.378 213.916 415.66 213.351 415.901 212.772C416.282 211.828 416.273 211.344 416.139 211.178C416.005 211.012 417.005 211.813 417.464 212.205L417.685 212.387L417.767 212.53L418.975 214.57C418.978 214.599 418.978 214.628 418.975 214.657C419.062 215.3 419.451 219.376 415.39 219.958Z" fill="#E7EFFD"/>
<path d="M439.405 309.963C439.405 309.963 436.036 311.889 434.352 311.606C433.185 311.478 432.001 311.649 430.944 312.097C429.786 313.204 428.324 314.034 426.696 314.511C423.968 315.316 420.162 314.999 417.996 314.372C416.974 314.073 416.892 313.688 417.386 313.216C417.879 312.743 419.187 312.048 420.642 311.293C423.409 309.857 426.375 307.027 426.375 307.027C426.394 306.643 426.58 306.28 426.895 306.011C427.193 305.783 427.464 305.53 427.705 305.255C428.138 304.813 428.54 304.349 428.54 304.349L438.461 304.674C438.461 304.674 438.63 305.297 438.764 305.936C438.877 306.347 438.924 306.771 438.903 307.194C438.878 307.348 438.891 307.505 438.939 307.656C438.987 307.806 439.071 307.946 439.184 308.066L439.362 309.494L439.405 309.963Z" fill="#65617D"/>
<path d="M460.112 312.388C459.995 312.808 459.848 313.556 459.783 313.899C459.783 314.016 459.752 314.092 459.752 314.092C459.752 314.092 458.951 315.63 454.5 316.189C450.048 316.748 450.053 314.897 450.053 314.897L450.096 314.394C450.174 313.578 450.334 312.01 450.451 311.678C450.611 311.225 450.334 309.23 450.334 309.23L450.287 307.144L450.252 305.698L457.613 305.033C457.661 305.514 457.74 305.992 457.851 306.464C457.894 306.734 458.005 306.992 458.176 307.22C458.574 307.598 458.817 309.317 458.817 309.317C458.817 309.317 460.285 311.829 460.112 312.388Z" fill="#65617D"/>
<path opacity="0.1" d="M438.461 304.674C438.461 304.674 438.63 305.297 438.764 305.936C437.694 306.106 433.018 306.812 431.836 306.313C430.511 305.754 427.666 305.441 427.666 305.441L427.713 305.297C428.146 304.855 428.549 304.39 428.549 304.39L438.461 304.674Z" fill="black"/>
<path opacity="0.1" d="M457.877 306.476C456.011 306.2 451.91 306.854 450.3 307.156L450.265 305.709L457.626 305.044C457.678 305.525 457.762 306.003 457.877 306.476Z" fill="black"/>
<path d="M462.048 253.46L461.892 258.372C461.892 258.372 462.091 265.89 461.489 267.061C460.887 268.232 460.887 273.041 460.887 273.041C460.887 273.041 461.29 275.308 460.848 275.803C460.406 276.298 460.727 278.111 461.047 279.056C461.368 280 461.086 282.342 461.086 282.342L461.008 295.565C461.008 295.565 460.575 298.992 460.004 299.483C459.839 299.63 459.723 299.812 459.667 300.012C459.61 300.211 459.616 300.42 459.683 300.616C459.683 300.616 459.203 302.573 459.324 302.925C459.445 303.276 459.683 304.077 458.765 304.462C457.847 304.847 458.081 306.072 458.081 306.072C455.877 305.614 449.624 306.827 449.624 306.827C448.949 305.611 448.359 304.361 447.858 303.083C447.75 302.824 447.706 302.548 447.731 302.273C447.755 301.998 447.846 301.731 447.998 301.489C448.15 301.247 448.359 301.037 448.612 300.871C448.865 300.706 449.156 300.589 449.464 300.529C450.304 300.427 448.862 299.132 448.862 299.132C448.862 299.132 449.022 298.958 448.62 297.696C448.217 296.434 448.702 293.219 448.823 292.38C448.944 291.542 449.542 287.469 449.542 287.469C449.542 287.469 449.222 282.327 449.464 282.12C449.707 281.912 450.503 279.879 450.105 279.218C449.707 278.557 449.061 274.182 449.061 273.929C449.061 273.676 448.542 268.017 448.542 268.017C448.542 268.017 448.061 264.065 448.182 263.226C448.304 262.387 447.858 259.275 447.858 259.275C447.858 256.687 446.125 253.887 446.125 253.887L446.082 253.989L442.358 262.588C442.358 262.588 441.756 265.176 441.237 266.645C440.908 267.639 440.647 268.648 440.453 269.668L440.418 269.856L440.384 270.053L440.358 270.193C440.358 270.193 440.635 272.044 440.193 272.641C439.701 273.544 439.391 274.514 439.275 275.508C439.275 275.999 439.314 277.888 439.314 277.888C439.314 277.888 439.474 281.628 439.033 282.044C438.911 282.135 438.827 282.257 438.791 282.393C438.755 282.529 438.77 282.672 438.833 282.8C438.833 282.8 439.552 285.633 439.232 286.366C438.911 287.099 439.154 288.814 439.154 288.814C439.154 288.814 438.513 294.235 438.431 294.515C438.348 294.794 437.911 296.963 438.392 297.137C438.872 297.311 439.795 298.361 439.795 298.361C439.795 298.361 439.994 302.943 439.275 303.291C438.556 303.639 438.95 305.426 438.95 305.426C438.95 305.426 433.139 306.404 431.819 305.845C430.498 305.286 427.649 304.972 427.649 304.972L428.047 303.839C428.021 303.88 427.757 304.254 427.571 302.823C427.367 301.311 429.052 302.067 429.052 302.067C429.052 302.067 430.377 302.347 428.25 300.529C426.124 298.712 427.168 296.857 427.289 296.857C427.41 296.857 427.688 294.164 427.688 294.164C427.892 293.218 427.92 292.25 427.77 291.296C427.488 290.038 427.25 286.12 427.25 286.12C427.25 286.12 427.449 283.147 427.086 282.063C426.722 280.979 427.328 279.041 427.449 278.565C427.571 278.089 427.086 273.948 427.086 273.948C427.312 272.826 427.367 271.683 427.25 270.548C427.008 269.112 427.488 263.831 427.488 263.831L428.211 257.748C428.211 257.748 428.731 255.859 428.645 255.104C428.558 254.348 429.246 251.643 429.246 251.643C429.207 251.069 429.317 250.494 429.567 249.962C429.97 249.263 430.13 246.94 430.13 246.94L433.979 239.248L435.863 232.448L461.316 232.236C461.316 232.236 461.407 232.825 461.563 233.894C461.718 234.964 461.935 236.539 462.177 238.5C462.398 240.275 462.641 242.365 462.879 244.688C463.654 252.13 462.048 253.46 462.048 253.46Z" fill="#3F3D56"/>
<path d="M459.679 192.224L453.751 197.759C453.751 197.759 446.138 195.114 446.939 194.189C447.247 193.837 447.199 192.727 447.022 191.502C446.74 189.564 446.156 187.347 446.156 187.347C446.156 187.347 459.462 185.458 458.336 187.415C457.978 188.153 457.949 188.982 458.254 189.738C458.575 190.627 459.056 191.466 459.679 192.224Z" fill="#997451"/>
<path opacity="0.1" d="M458.319 187.396C457.912 188.114 457.717 188.182 457.973 188.952C456.241 190.581 454.019 192.353 451.265 192.353C449.792 192.354 448.34 192.057 447.022 191.484C446.74 189.546 446.156 187.328 446.156 187.328C446.156 187.328 459.445 185.439 458.319 187.396Z" fill="black"/>
<path d="M460.809 183.83C460.809 186.037 459.804 188.155 458.014 189.716C456.225 191.277 453.798 192.154 451.267 192.154C448.737 192.154 446.31 191.277 444.52 189.716C442.731 188.155 441.726 186.037 441.726 183.83C441.726 183.788 441.726 183.75 441.726 183.709C441.735 182.616 441.991 181.535 442.478 180.528C442.966 179.522 443.677 178.609 444.569 177.841C445.461 177.074 446.518 176.468 447.679 176.057C448.84 175.646 450.082 175.438 451.334 175.446C452.587 175.454 453.826 175.677 454.98 176.103C456.134 176.529 457.18 177.148 458.06 177.927C458.939 178.705 459.634 179.627 460.105 180.64C460.576 181.653 460.814 182.737 460.805 183.83H460.809Z" fill="#B28B67"/>
<path opacity="0.1" d="M462.19 238.742C460.926 238.742 456.717 238.779 452.014 238.847H451.958L450.404 238.87H450.356C444.779 238.946 439.284 237.997 437.075 238.175C432.386 238.553 438.76 234.397 438.76 234.397C442.254 235.135 445.849 235.452 449.442 235.338L450.793 235.277C455.054 235.066 459.337 234.718 461.575 234.144C461.731 235.217 461.948 236.788 462.19 238.742Z" fill="black"/>
<path d="M462.19 238.53C460.926 238.53 456.717 238.572 452.014 238.636H451.958L450.404 238.658H450.356C444.779 238.738 439.284 237.786 437.075 237.967C432.386 238.345 438.76 234.189 438.76 234.189C442.254 234.929 445.849 235.246 449.442 235.13L450.793 235.069C455.054 234.862 459.337 234.51 461.575 233.936C461.731 235.005 461.948 236.577 462.19 238.53Z" fill="#5F5D7E"/>
<path opacity="0.1" d="M448.702 194.532L441.34 197.555L435.646 235.953C435.646 235.953 439.015 234.624 440.938 235.462C442.86 236.301 448.793 235.534 448.793 235.534C448.793 235.534 453.123 235.323 453.764 235.746C454.405 236.169 461.943 233.996 461.943 233.996C461.943 233.996 463.307 231.352 462.264 230.917C461.22 230.483 462.584 226.384 462.584 226.384L461.943 198.684L460.644 195.118L457.18 193.297L453.655 195.745L451.971 195.957L448.702 194.532Z" fill="black"/>
<path d="M448.702 194.113L441.34 197.135L435.633 235.538C435.633 235.538 439.002 234.208 440.925 235.047C442.847 235.885 448.78 235.119 448.78 235.119C448.78 235.119 453.11 234.907 453.751 235.326C454.392 235.746 461.93 233.581 461.93 233.581C461.93 233.581 463.294 230.936 462.251 230.502C461.207 230.067 462.571 225.968 462.571 225.968L461.93 198.269L460.631 194.702L457.167 192.881L453.642 195.33L451.958 195.541L448.702 194.113Z" fill="#E7EFFD"/>
<path opacity="0.1" d="M448.581 195.896C448.581 195.896 450.707 198.099 450.668 198.541C450.629 198.983 450.546 200.082 450.546 200.082L448.944 202.912C448.944 202.912 448.078 206.444 448.078 207.181C448.078 207.918 446.675 214.28 446.675 214.28L444.956 224.083L442.83 236.928L444.995 240.181L447.563 238.292L450.971 215.42L451.69 210.91C451.69 210.91 452.452 202.795 452.452 201.956C452.37 200.936 452.226 199.921 452.019 198.915C452.019 198.915 452.543 196.814 454.708 196.327C456.873 195.84 454.543 196.221 454.543 196.221L453.305 195.348L452.222 195.726C452.222 195.726 449.221 194.918 448.581 195.896Z" fill="black"/>
<path d="M448.342 195.685C448.342 195.685 450.464 197.887 450.425 198.329C450.386 198.771 450.304 199.867 450.304 199.867L448.702 202.7C448.702 202.7 447.836 206.233 447.836 206.965C447.836 207.698 446.433 214.064 446.433 214.064L444.753 223.857L442.626 236.701L444.792 239.954L447.355 238.065L450.763 215.194L451.486 210.683C451.486 210.683 452.248 202.568 452.248 201.729C452.166 200.708 452.022 199.692 451.815 198.684C451.815 198.684 452.335 196.588 454.5 196.096C456.665 195.605 454.34 195.994 454.34 195.994L453.097 195.118L452.014 195.496C452.014 195.496 448.983 194.706 448.342 195.685Z" fill="#219653"/>
<path opacity="0.1" d="M446.939 192.012C446.939 192.012 446.619 192.224 446.537 193.622C446.454 195.02 445.333 198.155 445.333 198.155C445.333 198.155 449.503 195.639 451.586 195.919L446.939 192.012Z" fill="black"/>
<path d="M446.939 191.593C446.939 191.593 446.619 191.805 446.537 193.203C446.454 194.6 445.333 197.736 445.333 197.736C445.333 197.736 449.503 195.22 451.586 195.5L446.939 191.593Z" fill="#E7EFFD"/>
<path opacity="0.1" d="M458.324 190.894L451.75 195.93C451.75 195.93 457.28 198.798 458.003 199.497C458.726 200.195 459.445 192.643 459.445 192.643L458.324 190.894Z" fill="black"/>
<path d="M458.561 190.475L451.988 195.511C451.988 195.511 457.522 198.378 458.241 199.077C458.96 199.776 459.683 192.224 459.683 192.224L458.561 190.475Z" fill="#E7EFFD"/>
<path opacity="0.1" d="M447.177 192.012C447.177 192.012 446.459 191.699 445.774 192.609C445.275 193.202 444.596 193.662 443.813 193.935C443.813 193.935 436.517 194.952 436.235 195.79L432.827 195.964C432.827 195.964 431.623 196.104 431.528 198.31C431.433 200.517 430.766 200.721 430.766 200.721C430.766 200.721 429.363 202.889 429.467 204.007C429.483 204.348 429.39 204.685 429.198 204.982C429.007 205.278 428.726 205.523 428.384 205.689L433.395 217.053C433.395 217.053 433.555 221.741 432.632 223.452C431.71 225.164 429.987 232.757 429.987 232.757C429.987 232.757 430.71 232.618 430.666 233.037C430.623 233.456 429.8 238.039 429.8 238.039C429.8 238.039 429.558 239.856 429.16 240.487C428.761 241.118 428.727 244.401 428.727 244.401L428.086 246.781C428.086 246.781 429.606 249.754 431.931 249.335C434.256 248.915 438.461 240.974 438.461 240.974L441.145 232.406L443.233 223.943L443.835 218.209L444.796 205.511L446.199 197.12C446.199 197.12 447.74 192.609 447.177 192.012Z" fill="black"/>
<path d="M446.939 191.593C446.939 191.593 446.216 191.28 445.536 192.19C445.035 192.783 444.354 193.242 443.57 193.516C443.57 193.516 436.274 194.532 435.993 195.371L432.589 195.545C432.589 195.545 431.385 195.685 431.264 197.887C431.143 200.09 430.502 200.301 430.502 200.301C430.502 200.301 429.099 202.47 429.203 203.588C429.219 203.928 429.127 204.266 428.936 204.563C428.744 204.86 428.462 205.104 428.12 205.269L433.148 216.648C433.148 216.648 433.308 221.337 432.386 223.048C431.463 224.759 429.74 232.353 429.74 232.353C429.74 232.353 430.463 232.213 430.424 232.633C430.385 233.052 429.558 237.631 429.558 237.631C429.558 237.631 429.32 239.452 428.917 240.079C428.514 240.706 428.484 243.997 428.484 243.997L427.843 246.377C427.843 246.377 429.367 249.35 431.693 248.927C434.018 248.504 438.227 240.57 438.227 240.57L440.912 232.002L442.995 223.539L443.57 217.782L444.532 205.084L445.935 196.693C445.935 196.693 447.498 192.19 446.939 191.593Z" fill="#65617D"/>
<path opacity="0.1" d="M421.205 218.662L418.88 220.06C418.88 220.06 415.325 220.158 412.783 219.614L411.484 219.112L411.224 219.013L411.493 219.089C412.525 219.41 413.646 219.444 414.701 219.187C417.992 218.22 417.628 213.482 417.499 212.409C417.499 212.3 417.477 212.232 417.473 212.205V212.232C417.519 212.296 417.569 212.358 417.624 212.417L417.771 212.553L418.975 214.57C418.978 214.599 418.978 214.628 418.975 214.657L421.205 218.662Z" fill="black"/>
<path d="M429.259 204.99L428.138 205.269L427.978 207.26C427.978 207.26 426.679 207.086 426.293 208.45C426.139 209.173 425.797 209.856 425.293 210.445C425.293 210.445 423.089 212.054 422.968 213.418L421.604 214.151C421.604 214.151 418.438 213.52 417.706 212.402C417.706 212.402 419.153 221.424 411.454 219.202C411.454 219.202 420.071 222.489 420.473 222.946C420.876 223.403 423.505 224.729 425.925 223.611C428.346 222.493 428.852 220.778 428.852 220.778C428.852 220.778 431.178 217.944 431.256 217.525C431.333 217.105 433.139 216.614 433.139 216.614L436.603 209.342L429.259 204.99Z" fill="#65617D"/>
<path opacity="0.1" d="M457.401 195.092L458.562 190.475C458.562 190.475 459.085 191.986 459.605 192.33L461.337 193.463C461.337 193.463 463.069 194.162 463.662 194.162C464.256 194.162 467.512 194.918 467.91 195.296C468.309 195.673 469.915 195.401 469.915 195.401C469.915 195.401 471.236 195.779 472.401 196.032C473.566 196.285 474.133 197.955 473.882 198.62C473.785 198.951 473.786 199.297 473.884 199.628C473.983 199.958 474.176 200.261 474.445 200.509C474.925 200.928 475.168 202.292 475.168 202.292C475.756 202.46 476.245 202.824 476.527 203.305C476.93 204.06 476.809 205.753 476.809 205.753L470.838 213.097C470.838 213.097 470.916 215.93 470.677 216.561C470.439 217.192 471.517 227.895 471.517 227.895L472.76 246.29C472.123 246.778 471.453 247.233 470.755 247.654C470.396 247.793 470.037 241.148 470.037 240.906C470.037 240.665 460.774 228.817 460.774 228.817C460.774 228.817 459.532 227.068 459.532 226.682C459.532 226.297 458.371 222.765 458.371 222.765L456.609 215.964L457.401 195.092Z" fill="black"/>
<path d="M477.298 205.356C477.298 205.598 477.298 205.757 477.298 205.757L471.331 213.093C471.331 213.093 471.414 215.927 471.171 216.558C471.032 216.935 471.336 220.687 471.604 223.777C471.808 226.006 471.994 227.888 471.994 227.888L472.522 235.689L473.237 246.267C472.599 246.755 471.93 247.211 471.232 247.631C470.872 247.771 470.513 241.125 470.513 240.88C470.513 240.634 461.251 228.791 461.251 228.791C461.251 228.791 460.008 227.041 460.008 226.656C460.008 226.271 458.847 222.738 458.847 222.738L457.085 215.938L457.886 195.095L458.566 190.479C458.566 190.479 459.57 191.99 460.09 192.33L461.822 193.486C461.822 193.486 463.554 194.185 464.147 194.185C464.741 194.185 467.997 194.94 468.395 195.318C468.794 195.696 470.4 195.424 470.4 195.424C470.4 195.424 471.725 195.802 472.886 196.055C474.046 196.308 474.618 197.978 474.367 198.643C474.271 198.973 474.272 199.32 474.37 199.65C474.469 199.981 474.661 200.284 474.93 200.532C475.41 200.951 475.653 202.315 475.653 202.315C476.241 202.483 476.73 202.847 477.012 203.327C477.248 203.983 477.345 204.67 477.298 205.356Z" fill="#65617D"/>
<path opacity="0.1" d="M428.298 298.538C428.497 298.538 436.915 298.818 436.755 300.008C436.595 301.198 428.298 298.538 428.298 298.538Z" fill="black"/>
<path opacity="0.1" d="M430.182 300.518C430.182 300.518 435.832 301.323 434.352 302.056C432.871 302.789 430.182 300.518 430.182 300.518Z" fill="black"/>
<path opacity="0.1" d="M451.187 297.771C451.187 297.771 460.566 298.47 459.164 299.377C457.761 300.284 454.435 300.427 454.275 300.461C454.114 300.495 451.187 297.771 451.187 297.771Z" fill="black"/>
<path opacity="0.1" d="M450.066 301.372C450.066 301.372 455.262 302.127 455.435 303.015C455.608 303.903 450.066 301.372 450.066 301.372Z" fill="black"/>
<path opacity="0.1" d="M452.95 280.317C452.95 280.317 457.713 281.296 458.003 281.961L452.95 280.317Z" fill="black"/>
<path opacity="0.1" d="M434.564 283.325C434.564 283.325 432.078 283.956 434.486 285.214C436.893 286.472 434.564 283.325 434.564 283.325Z" fill="black"/>
<path opacity="0.1" d="M445.575 249.716C445.857 249.716 450.226 248.458 451.75 249.017C452.839 249.373 453.991 249.562 455.154 249.577L445.575 249.716Z" fill="black"/>
<path opacity="0.1" d="M446.138 253.702L446.095 254.05L442.358 262.588C442.358 262.588 441.756 265.176 441.236 266.645C440.908 267.639 440.646 268.648 440.453 269.668L443.761 251.772L446.138 253.702Z" fill="black"/>
<path d="M451.958 238.636L450.403 238.658H450.356L449.442 235.134L450.793 235.069L451.958 238.636Z" fill="#3F3D56"/>
<path d="M470.868 234.367L469.872 235.085L466.538 237.476C466.538 237.476 457.522 241.673 455.037 237.687C452.846 234.174 463.069 231.665 465.533 231.118L466.057 231.008L470.868 234.367Z" fill="#B28B67"/>
<path opacity="0.1" d="M432.347 199.988C432.347 199.988 434.109 200.687 434.512 201.665C434.914 202.644 432.347 199.988 432.347 199.988Z" fill="black"/>
<path opacity="0.1" d="M426.895 210.479C426.895 210.479 424.332 213.207 425.371 214.257C426.41 215.307 426.895 210.479 426.895 210.479Z" fill="black"/>
<path opacity="0.1" d="M472.752 201.537C472.752 201.537 470.348 201.748 470.266 203.565L472.752 201.537Z" fill="black"/>
<path opacity="0.1" d="M450.464 230.203C450.707 229.992 456.236 222.859 457.522 223.49L450.464 230.203Z" fill="black"/>
<path opacity="0.1" d="M460.809 183.83C460.809 185.2 460.421 186.55 459.679 187.759H459.61C459.003 187.645 458.687 187.033 458.228 186.648C457.944 186.412 457.583 186.259 457.194 186.212C456.806 186.164 456.41 186.224 456.063 186.383C455.712 186.566 455.426 186.831 455.238 187.148C455.05 187.465 454.967 187.822 454.998 188.178C454.695 187.045 454.79 185.866 454.491 184.744C454.193 183.622 453.296 182.477 452.066 182.477C451.538 182.477 450.919 182.647 450.538 182.299C450.308 182.092 450.261 181.763 450.105 181.51C449.239 180.267 446.554 180.894 445.463 181.533C444.372 182.171 443.103 183.184 441.748 183.728C441.766 181.52 442.789 179.41 444.591 177.86C446.393 176.311 448.826 175.449 451.356 175.465C453.886 175.481 456.305 176.374 458.081 177.946C459.857 179.518 460.845 181.641 460.826 183.848L460.809 183.83Z" fill="black"/>
<path d="M450.087 181.279C450.261 181.533 450.308 181.861 450.52 182.073C450.901 182.417 451.521 182.239 452.049 182.247C453.279 182.265 454.179 183.403 454.474 184.513C454.768 185.624 454.677 186.825 454.985 187.944C454.95 187.588 455.031 187.231 455.219 186.915C455.406 186.598 455.693 186.334 456.046 186.153C456.393 185.995 456.788 185.935 457.176 185.981C457.564 186.028 457.926 186.179 458.211 186.414C458.67 186.791 458.986 187.415 459.592 187.524C460.198 187.634 460.779 187.128 460.995 186.572C461.151 185.998 461.267 185.417 461.342 184.831C461.614 183.743 462.433 182.847 462.883 181.808C463.42 180.546 463.407 179.156 462.844 177.902C462.541 177.245 462.095 176.655 461.792 176.013C461.329 175.019 461.207 173.894 460.644 172.945C460.193 172.177 459.442 171.575 458.527 171.247C457.611 170.919 456.592 170.886 455.652 171.155C454.786 171.442 454.024 171.993 453.14 172.243C451.954 172.575 450.689 172.326 449.464 172.175C448.238 172.024 446.866 172.012 445.896 172.715C444.761 173.527 444.449 175.05 443.384 175.937C442.951 176.315 442.38 176.549 441.908 176.893C441.652 177.057 441.445 177.271 441.301 177.518C441.158 177.765 441.082 178.037 441.081 178.314C441.154 179.039 441.947 179.696 441.665 180.369C441.561 180.563 441.414 180.736 441.232 180.879C440.339 181.696 439.675 182.683 439.292 183.762C441.457 184.343 443.761 182.281 445.437 181.306C446.537 180.667 449.208 180.04 450.087 181.279Z" fill="#7C5C5C"/>
<path opacity="0.1" d="M470.868 234.367L469.872 235.085C469.006 233.804 465.377 231.25 465.377 231.25L465.533 231.118L466.057 231.008L470.868 234.367Z" fill="black"/>
<path d="M471.829 233.071C471.829 233.071 471.474 233.849 471.102 234.522C470.729 235.194 470.327 235.806 470.309 235.311C470.266 234.329 465.62 231.042 465.62 231.042L466.248 230.506L466.979 229.886L471.829 233.071Z" fill="#E7EFFD"/>
<path opacity="0.1" d="M471.989 227.895L472.518 235.697C471.271 234.008 467.854 229.678 465.659 229.818L470.989 224.469C471.211 224.253 471.415 224.025 471.6 223.785C471.803 226.014 471.989 227.895 471.989 227.895Z" fill="black"/>
<path opacity="0.1" d="M471.829 233.071C471.829 233.071 471.474 233.849 471.102 234.522C469.703 232.852 467.785 230.876 466.248 230.506L466.979 229.886L471.829 233.071Z" fill="black"/>
<path d="M475.839 204.778L477.281 205.757C477.281 205.757 479.688 205.794 479.927 207.54C480.165 209.285 482.373 210.094 482.373 210.094C482.373 210.094 484.014 211.529 484.014 212.194C484.014 212.859 485.257 214.045 485.257 214.151C485.257 214.257 486.461 216.388 486.301 216.773C486.14 217.158 487.6 218.836 487.141 219.467C486.78 220.032 486.459 220.616 486.179 221.216C486.179 221.216 484.296 224.363 483.334 224.956C482.373 225.549 477.965 230.555 477.965 230.555C477.965 230.555 473.232 235.307 473.232 236.777C473.232 236.777 468.625 230.064 465.897 230.237L471.227 224.888C471.227 224.888 472.15 224.011 472.193 223.49C472.236 222.969 474.756 220.551 475.96 220.445C475.96 220.445 476.159 219.013 475.64 218.975C475.12 218.938 474.678 217.842 474.678 217.842C474.678 217.842 471.149 214.204 471.11 211.896C471.071 209.587 475.839 204.778 475.839 204.778Z" fill="#65617D"/>
<path opacity="0.1" d="M477.965 208.099C477.965 208.099 474.596 210.267 475.319 210.97C476.042 211.673 477.965 208.099 477.965 208.099Z" fill="black"/>
<path opacity="0.1" d="M478.125 217.053C478.125 217.053 484.378 215.303 485.019 217.053H478.125Z" fill="black"/>
<path opacity="0.1" d="M439.405 309.963C439.405 309.963 436.036 311.889 434.352 311.606C433.185 311.478 432.001 311.649 430.944 312.097C429.786 313.204 428.324 314.034 426.696 314.511C423.968 315.316 420.162 314.999 417.996 314.372C416.974 314.073 416.892 313.688 417.386 313.216C419.737 313.624 424.998 314.436 426.414 313.846C427.975 313.124 429.476 312.306 430.905 311.398C430.905 311.398 434.369 310.979 434.832 310.979C435.174 310.979 437.837 310.019 439.34 309.468L439.405 309.963Z" fill="black"/>
<path opacity="0.1" d="M459.796 313.911C459.796 314.028 459.765 314.103 459.765 314.103C459.765 314.103 458.964 315.641 454.513 316.2C450.061 316.759 450.066 314.908 450.066 314.908L450.109 314.406C451.516 314.874 454.591 315.392 459.796 313.911Z" fill="black"/>
<path opacity="0.1" d="M434.009 207.68C434.009 207.68 434.009 215.655 433.23 216.441C432.451 217.226 434.009 207.68 434.009 207.68Z" fill="black"/>
<path opacity="0.1" d="M470.145 210.252L471.31 213.101C471.31 213.101 471.769 210.305 470.145 210.252Z" fill="black"/>
<g opacity="0.1">
<path opacity="0.1" d="M441.804 179.681C442.098 179.028 441.328 178.382 441.228 177.679C441.124 177.876 441.08 178.093 441.098 178.31C441.15 178.843 441.6 179.338 441.717 179.821C441.751 179.777 441.78 179.73 441.804 179.681Z" fill="black"/>
<path opacity="0.1" d="M455.106 187.215C454.82 186.111 454.907 184.948 454.612 183.841C454.318 182.734 453.417 181.574 452.188 181.574C451.659 181.574 451.04 181.74 450.659 181.397C450.425 181.189 450.382 180.86 450.226 180.603C449.36 179.364 446.675 179.995 445.58 180.63C443.943 181.578 441.683 183.569 439.587 183.116C439.487 183.327 439.392 183.542 439.314 183.765C441.479 184.347 443.783 182.284 445.458 181.31C446.554 180.675 449.226 180.048 450.105 181.287C450.278 181.54 450.326 181.869 450.538 182.08C450.919 182.424 451.538 182.247 452.066 182.254C453.296 182.273 454.197 183.41 454.491 184.521C454.786 185.632 454.695 186.833 455.002 187.951C454.981 187.702 455.016 187.452 455.106 187.215Z" fill="black"/>
<path opacity="0.1" d="M461.134 185.904C460.917 186.459 460.346 186.969 459.726 186.856C459.107 186.742 458.808 186.13 458.349 185.745C458.065 185.51 457.703 185.359 457.315 185.311C456.927 185.264 456.532 185.323 456.184 185.48C455.85 185.655 455.575 185.904 455.388 186.202C455.2 186.501 455.108 186.837 455.119 187.177C455.28 186.749 455.616 186.389 456.063 186.164C456.41 186.006 456.805 185.946 457.193 185.993C457.581 186.039 457.943 186.19 458.228 186.425C458.687 186.803 459.003 187.426 459.609 187.536C460.216 187.645 460.796 187.139 461.012 186.584C461.13 186.257 461.204 185.92 461.233 185.579C461.209 185.689 461.175 185.797 461.134 185.904Z" fill="black"/>
<path opacity="0.1" d="M463.022 181.136C462.589 182.171 461.753 183.066 461.48 184.158C461.428 184.377 461.394 184.604 461.363 184.831C461.64 183.743 462.45 182.851 462.9 181.808C463.101 181.342 463.225 180.854 463.269 180.358C463.209 180.622 463.127 180.882 463.022 181.136Z" fill="black"/>
</g>
<path d="M405.093 206.459C405.148 206.459 405.193 206.42 405.193 206.372C405.193 206.324 405.148 206.285 405.093 206.285C405.038 206.285 404.993 206.324 404.993 206.372C404.993 206.42 405.038 206.459 405.093 206.459Z" fill="#E6E8EC"/>
<path d="M443.276 208.322H370.546C368.966 208.322 367.684 209.44 367.684 210.819V284.488C367.684 285.867 368.966 286.986 370.546 286.986H443.276C444.857 286.986 446.138 285.867 446.138 284.488V210.819C446.138 209.44 444.857 208.322 443.276 208.322Z" fill="white"/>
<path opacity="0.1" d="M443.276 208.322H370.546C368.966 208.322 367.684 209.44 367.684 210.819V284.488C367.684 285.867 368.966 286.986 370.546 286.986H443.276C444.857 286.986 446.138 285.867 446.138 284.488V210.819C446.138 209.44 444.857 208.322 443.276 208.322Z" fill="#5A5773"/>
<path d="M439.275 212.334H374.547C372.967 212.334 371.685 213.452 371.685 214.831V280.476C371.685 281.855 372.967 282.973 374.547 282.973H439.275C440.856 282.973 442.137 281.855 442.137 280.476V214.831C442.137 213.452 440.856 212.334 439.275 212.334Z" fill="white"/>
<path d="M427.657 226.501H384.546C383.104 226.501 381.935 227.521 381.935 228.779V238.776C381.935 240.034 383.104 241.054 384.546 241.054H427.657C429.099 241.054 430.268 240.034 430.268 238.776V228.779C430.268 227.521 429.099 226.501 427.657 226.501Z" fill="#219653"/>
<path d="M428.497 246.377H383.71V249.346H428.497V246.377Z" fill="#219653"/>
<path d="M437.725 252.644H376.098V255.614H437.725V252.644Z" fill="#219653"/>
<path d="M437.725 259.24H376.098V262.21H437.725V259.24Z" fill="#219653"/>
<path d="M437.725 265.837H376.098V268.806H437.725V265.837Z" fill="#219653"/>
<path d="M181.867 182.318H2.86225C1.28147 182.318 0 183.436 0 184.816V258.485C0 259.864 1.28147 260.982 2.86225 260.982H181.867C183.448 260.982 184.73 259.864 184.73 258.485V184.816C184.73 183.436 183.448 182.318 181.867 182.318Z" fill="white"/>
<path opacity="0.1" d="M181.867 182.318H2.86225C1.28147 182.318 0 183.436 0 184.816V258.485C0 259.864 1.28147 260.982 2.86225 260.982H181.867C183.448 260.982 184.73 259.864 184.73 258.485V184.816C184.73 183.436 183.448 182.318 181.867 182.318Z" fill="#5A5773"/>
<path d="M172.441 186.331H12.2847C10.704 186.331 9.42249 187.449 9.42249 188.828V254.473C9.42249 255.852 10.704 256.97 12.2847 256.97H172.441C174.021 256.97 175.303 255.852 175.303 254.473V188.828C175.303 187.449 174.021 186.331 172.441 186.331Z" fill="white"/>
<path d="M144.754 200.501H36.1743C34.7323 200.501 33.5632 201.521 33.5632 202.78V212.776C33.5632 214.034 34.7323 215.054 36.1743 215.054H144.754C146.196 215.054 147.365 214.034 147.365 212.776V202.78C147.365 201.521 146.196 200.501 144.754 200.501Z" fill="#219653"/>
<path d="M143.19 220.373H37.7375V223.343H143.19V220.373Z" fill="#219653"/>
<path d="M164.915 226.641H19.8105V229.61H164.915V226.641Z" fill="#219653"/>
<path d="M164.915 233.237H19.8105V236.207H164.915V233.237Z" fill="#219653"/>
<path d="M164.915 239.833H19.8105V242.803H164.915V239.833Z" fill="#219653"/>
<path d="M45.1507 317.587C45.666 315.947 46.0168 314.504 46.0168 314.504C46.0264 313.408 46.3573 312.332 46.9781 311.379V310.926L47.1253 307.598C46.8964 306.985 46.6066 306.391 46.2593 305.822C45.6184 304.753 46.4758 300.941 46.4758 300.941C46.4758 300.941 49.2601 295.626 48.7924 292.176C48.3248 288.727 54.6901 277.129 54.6901 277.129C54.7071 275.986 54.5734 274.845 54.2918 273.729C54.2406 273.496 54.226 273.258 54.2485 273.022C54.2463 272.993 54.2463 272.964 54.2485 272.935V272.962C54.4347 270.695 56.669 266.539 56.669 266.539L56.7513 258.455C56.7513 258.455 55.6514 253.649 58.0504 247.329C58.8947 245.122 59.449 243.354 59.8127 241.987C59.856 241.832 59.895 241.685 59.9296 241.541C55.5648 240.808 52.2306 240.211 52.2306 240.211C52.2306 240.211 55.1881 231.001 56.9938 229.433C58.7995 227.865 60.3843 222.795 60.3843 222.795C60.3843 222.795 61.5708 216.259 60.2111 214.295C58.8514 212.33 58.7908 209.006 58.7908 209.006C58.7908 209.006 55.5778 206.803 55.2054 205.862C54.833 204.922 54.2398 202.802 54.2874 201.707C54.3351 200.611 54.7941 199.629 54.6815 199.043C54.5689 198.458 55.7683 196.289 55.2617 195.224C55.1357 194.897 55.077 194.552 55.0885 194.207C55.0885 194.207 55.0885 194.207 55.0885 194.177C55.1245 193.262 55.2623 192.353 55.4999 191.461C56.4842 190.79 57.6207 190.308 58.8341 190.048L58.9164 189.799L59.1329 189.153C59.2394 189.095 59.3492 189.042 59.462 188.994L59.4836 188.756L59.5529 187.815L59.1372 185.669C58.2712 181.944 63.9524 181.585 63.9524 181.585C64.3181 181.031 64.9056 180.614 65.6022 180.414C66.754 180.105 65.5502 185.972 65.0003 186.331C64.5673 186.599 63.2682 188.408 62.6403 189.296L62.5364 189.444C62.6276 189.519 62.7116 189.601 62.7876 189.689L62.5148 190.962L62.4715 191.155C62.8289 191.573 63.1135 192.035 63.3158 192.526C63.3158 192.526 62.2376 193.478 62.3978 194.589C62.4445 195.453 62.2975 196.317 61.9648 197.132C62.0255 197.075 62.7832 196.414 63.502 196.603C64.2209 196.792 66.2214 197.392 66.2214 197.392C66.2214 197.392 67.724 197.676 67.5724 197.963C67.4209 198.25 68.538 199.565 68.538 199.565L72.7513 196.342C72.7989 196.24 72.8422 196.142 72.8855 196.04C73.0796 195.565 73.2246 195.075 73.3186 194.578C72.8744 194.472 72.4401 194.337 72.0195 194.173C71.5972 194.032 71.22 193.804 70.9196 193.509C70.5299 193.07 70.4866 192.489 70.3351 191.956C70.0579 190.913 69.4084 189.969 68.9537 188.967C68.191 187.288 67.9898 185.454 68.3735 183.678C68.466 183.134 68.7033 182.617 69.0663 182.167C69.7678 181.393 70.9846 181.109 71.8896 180.505C72.7946 179.9 73.4008 178.945 74.4401 178.503C75.384 178.102 76.5056 178.193 77.5405 178.374C79.5502 178.732 81.4663 179.412 83.1914 180.38C83.7716 180.709 84.4081 181.087 85.0966 181C85.668 180.867 86.1714 180.57 86.5256 180.157C86.5237 180.14 86.5237 180.122 86.5256 180.104L86.5732 180.063C86.9666 180.911 87.141 181.824 87.0842 182.738C87.0842 182.877 87.0842 183.021 87.0496 183.161C87.0496 183.21 87.0496 183.259 87.0496 183.308C87.0452 183.35 87.0452 183.391 87.0496 183.433C87.0475 183.495 87.0563 183.558 87.0755 183.618C87.1515 183.804 87.2743 183.973 87.4349 184.113C87.5526 184.239 87.657 184.374 87.7467 184.517C87.7467 184.468 87.7164 184.419 87.6991 184.37C87.9442 184.709 88.0734 185.102 88.0715 185.503C88.0815 185.795 87.9585 186.079 87.7294 186.293C87.5201 186.462 87.2908 186.612 87.0452 186.739C87.2645 188.11 86.9969 189.508 86.2785 190.743C85.5601 191.979 84.4253 192.993 83.0268 193.648C82.9748 193.747 82.9229 193.849 82.8753 193.951C82.2308 195.151 81.9192 196.467 81.9659 197.793C81.9659 197.887 81.9659 197.982 82.0006 198.076C82.0352 198.171 82.1002 198.178 82.1435 198.231C82.1435 198.231 88.8552 198.514 90.492 197.317C92.1288 196.119 94.3459 200.501 94.3459 200.501C94.3459 200.501 96.7362 200.989 97.2341 200.6C97.7321 200.211 100.542 200.653 100.542 200.653C101.733 199.796 103.254 199.367 104.795 199.455C105.763 198.863 106.823 198.395 107.943 198.065L108.021 198.042C108.51 197.903 109.03 197.863 109.54 197.925C109.54 197.925 112.948 195.658 113.966 194.408C114.984 193.157 119.76 188.575 119.76 188.552L119.79 188.325L119.872 187.638C120.006 187.662 120.143 187.677 120.279 187.683L120.383 187.445C120.676 186.781 121.031 186.139 121.444 185.526C121.444 185.526 121.483 184.653 121.202 184.426C120.92 184.2 121.474 181.026 121.474 181.026C121.474 181.026 124.718 175.057 127.182 179.678C127.182 179.678 132.092 182.779 127.71 186.051C127.71 186.051 125.978 186.708 125.731 187.264C125.558 187.641 124.939 188.631 124.523 189.3L124.337 189.598L124.384 189.636L124.298 190.203L124.263 190.426C125.038 190.845 125.562 191.253 125.419 191.559C125.161 192.054 124.977 192.576 124.869 193.112C124.869 193.112 118.746 199.27 117.872 201.986C117.872 201.986 101.824 209.595 96.6539 210.003L97.3684 214.098C97.4531 215.203 97.4734 216.312 97.429 217.419C97.3207 218.288 97.836 222.258 97.836 222.258C97.836 222.258 98.4726 228.099 99.1957 228.938C99.9188 229.777 99.6287 233.26 99.6287 233.26C99.7372 234.934 100.01 236.598 100.443 238.231C101.101 240.464 100.443 243.177 100.443 243.177C100.443 243.177 102.829 248.492 96.7232 244.737C96.7232 244.737 93.6574 244.469 90.124 244.246C90.124 244.344 90.124 244.45 90.124 244.552C90.124 244.952 90.1023 245.383 90.0893 245.836C90.0027 248.832 89.8425 252.958 89.5481 256.075C89.0284 261.587 86.6209 272.444 86.6209 272.444L86.3784 277.93C86.4813 278.45 86.5191 278.978 86.491 279.505C86.4502 281.441 85.7788 283.326 84.5554 284.942L83.9102 288.587C83.9102 288.587 82.6761 290.96 82.5895 292.399C82.5871 292.517 82.5988 292.635 82.6241 292.751C82.6559 292.937 82.666 293.125 82.6544 293.313C82.6544 294.976 81.3207 298.912 81.3207 298.912C81.3207 298.912 81.0739 302.921 80.3767 303.129C79.7792 303.31 81.0609 305.467 81.442 306.087C81.4562 306.05 81.4663 306.012 81.4723 305.973L81.5546 306.094C81.682 306.424 81.7392 306.771 81.7234 307.118C81.7492 307.393 81.6852 307.669 81.5389 307.914C81.3925 308.158 81.1698 308.362 80.8964 308.501C79.5583 309.154 78.8309 309.71 79.9307 309.982C80.3368 310.051 80.7386 310.138 81.1345 310.242L81.1995 310.11C81.3548 310.169 81.4824 310.272 81.5612 310.402C81.64 310.533 81.6651 310.683 81.6325 310.828C81.6024 311.303 81.4404 311.765 81.1605 312.173C80.6272 313.204 79.9588 314.178 79.1686 315.074L78.6403 315.006C78.7118 315.183 78.8078 315.352 78.9261 315.509C79.1156 315.769 79.374 315.985 79.6796 316.14C79.9605 316.298 80.2761 316.403 80.6062 316.449C80.9793 316.473 81.3425 316.566 81.6722 316.72C82.0019 316.874 82.2908 317.087 82.5202 317.345C83.1697 318.142 83.5551 319.211 82.1564 320.091L77.1724 321.406C77.1724 321.406 68.6679 322.082 69.1876 320.443C69.7072 318.803 70.0536 317.36 70.0536 317.36C70.0627 316.346 70.3414 315.348 70.8677 314.443C70.9638 314.296 71.0709 314.155 71.1881 314.02L70.8893 313.982C70.8893 313.982 70.3957 310.299 69.5816 309.585C69.3997 309.415 69.3608 309.29 69.4084 309.207C69.3348 309.007 69.5513 308.897 69.8414 308.829C69.8414 308.875 69.8804 308.924 69.8977 308.973C70.1694 308.933 70.445 308.916 70.7204 308.924C70.7204 308.924 71.0799 307.016 70.2181 306.279C70.1485 306.198 70.0994 306.105 70.074 306.006C70.0486 305.907 70.0476 305.804 70.0709 305.705C70.0727 305.442 70.1149 305.18 70.1965 304.927C70.205 304.943 70.2151 304.958 70.2268 304.972C70.7551 303.249 72.3919 300.537 72.3919 300.537C72.3919 300.537 72.5348 298.795 72.0152 298.077C71.4956 297.36 72.5045 288.61 72.5045 288.61C72.5045 288.61 72.4828 284.364 73.1886 282.41C73.8945 280.457 72.6214 278.085 72.6214 278.085C72.6214 278.085 72.6214 278.039 72.643 277.96C72.6445 277.949 72.6445 277.937 72.643 277.926C72.643 277.926 72.6863 277.665 72.7556 277.261V277.303C72.9462 276.169 73.2969 274.163 73.5307 273.226C73.8642 271.9 73.8035 265.497 73.8035 265.497L72.682 262.739L70.2701 267.371L67.672 273.566C67.672 273.566 66.4552 274.851 66.373 276.211C66.373 276.279 66.373 276.343 66.373 276.411C66.3837 276.551 66.3837 276.691 66.373 276.83C66.3765 277.624 66.0915 278.398 65.5589 279.041C65.5589 279.041 64.8098 281.984 63.8268 282.705C62.8439 283.427 62.7659 284.881 62.7659 284.881C62.7659 284.881 61.4062 289.143 60.8217 289.879C60.3324 290.499 60.2284 292.248 60.2111 292.785C60.2111 292.883 60.2111 292.939 60.2111 292.939C60.2111 292.939 59.9816 294.473 59.9296 295.765C59.9296 295.924 59.9296 296.079 59.9296 296.222C59.9275 296.212 59.9275 296.202 59.9296 296.192C59.9132 296.543 59.9452 296.895 60.0249 297.239C60.0249 297.239 60.0249 297.28 60.0249 297.303V297.084C60.2306 297.969 60.3106 298.872 60.2631 299.774C60.2241 301.319 59.8734 303.14 58.7518 304.179C56.8119 305.977 55.6558 305.69 55.6558 305.69C55.6558 305.69 56.4482 308.044 57.5264 308.546C57.5679 308.565 57.6071 308.588 57.6433 308.614C57.6433 308.569 57.6433 308.523 57.6736 308.482C57.7882 308.603 57.8727 308.743 57.9219 308.894C57.9711 309.045 57.9839 309.203 57.9594 309.358C57.9941 310.382 57.18 312.003 56.4439 312.758C56.1758 312.974 55.8496 313.128 55.4955 313.204C55.5494 313.24 55.6058 313.273 55.6644 313.302C55.7845 313.364 55.9089 313.42 56.0368 313.469C56.2115 313.543 56.3986 313.593 56.5911 313.616C56.9647 313.638 57.3287 313.729 57.6588 313.883C57.9888 314.038 58.2773 314.252 58.505 314.511C59.1545 315.305 59.5399 316.374 58.1413 317.254L53.1572 318.569C53.1572 318.569 44.6268 319.226 45.1507 317.587Z" fill="url(#paint2_linear)"/>
<path d="M77.3457 321.414L82.1738 320.095C83.5292 319.211 83.1568 318.142 82.5289 317.345C82.3122 317.089 82.0348 316.878 81.7156 316.725C81.3965 316.571 81.0432 316.48 80.6799 316.457C80.3572 316.411 80.0499 316.304 79.7792 316.143C79.4844 315.988 79.2365 315.773 79.0561 315.516C78.7307 315.023 78.5674 314.461 78.5841 313.892C78.5841 313.892 73.4139 312.381 71.9243 313.669C71.661 313.903 71.4378 314.169 71.2618 314.458C70.7508 315.367 70.4786 316.363 70.465 317.375C70.465 317.375 70.1359 318.814 69.6293 320.458C69.1227 322.101 77.3457 321.414 77.3457 321.414Z" fill="#2D293D"/>
<path d="M54.1315 318.584L58.9597 317.265C60.315 316.381 59.9426 315.312 59.3148 314.519C59.098 314.262 58.8201 314.05 58.5001 313.896C58.1802 313.742 57.8258 313.65 57.4614 313.627C57.2746 313.606 57.0931 313.557 56.9245 313.484C56.8009 313.433 56.6809 313.377 56.5651 313.314C55.266 312.63 55.3656 311.047 55.3656 311.047C55.3656 311.047 50.1954 309.536 48.7058 310.824C48.506 310.998 48.3288 311.191 48.1775 311.398C47.5723 312.358 47.2509 313.435 47.2422 314.53C47.2422 314.53 46.9088 315.973 46.4065 317.613C45.9042 319.253 54.1315 318.584 54.1315 318.584Z" fill="#2D293D"/>
<path opacity="0.1" d="M71.9199 313.669C71.6581 313.903 71.4364 314.169 71.2617 314.458L79.056 315.513C78.7306 315.019 78.5673 314.457 78.5841 313.888C78.5841 313.888 73.4268 312.381 71.9199 313.669Z" fill="black"/>
<path opacity="0.1" d="M48.1776 311.413L48.1213 312.694C49.2645 314.489 55.1752 314.304 56.9246 313.484C56.801 313.433 56.681 313.377 56.5652 313.314C55.2661 312.63 55.3657 311.047 55.3657 311.047C55.3657 311.047 50.1955 309.536 48.7059 310.824C48.5051 311.003 48.3279 311.2 48.1776 311.413Z" fill="black"/>
<path d="M47.4891 305.867C47.8331 306.438 48.1228 307.031 48.3551 307.643L48.1429 312.229C49.39 314.194 56.3443 313.786 57.3229 312.773C58.3015 311.761 59.4187 309.06 58.3751 308.561C57.3316 308.062 56.5651 305.705 56.5651 305.705C56.5651 305.705 57.6866 305.977 59.5703 304.194C61.4539 302.411 61.0988 298.251 60.8044 297.254C60.5099 296.256 60.9992 292.955 60.9992 292.955C60.9992 292.955 61.0339 290.627 61.6011 289.891C62.1684 289.154 63.4891 284.893 63.4891 284.893C63.4891 284.893 63.5497 283.438 64.5153 282.716C65.481 281.995 66.2128 279.048 66.2128 279.048C66.792 278.327 67.066 277.452 66.9879 276.574C66.8536 275.115 68.2523 273.589 68.2523 273.589L70.7941 267.393L73.1324 262.758L74.2106 265.527C74.2106 265.527 74.2626 271.931 73.9378 273.257C73.613 274.583 73.0718 278.115 73.0718 278.115C73.0718 278.115 74.3015 280.484 73.6174 282.441C72.9332 284.398 72.9419 288.64 72.9419 288.64C72.9419 288.64 71.9546 297.394 72.4569 298.108C72.9592 298.822 72.8163 300.563 72.8163 300.563C72.8163 300.563 69.8631 305.584 70.6945 306.313C71.5259 307.042 71.1795 308.958 71.1795 308.958C71.1795 308.958 69.3175 308.894 70.0839 309.619C70.8504 310.344 71.2617 313.998 71.2617 313.998L79.2769 315.082C80.0449 314.18 80.6929 313.206 81.2082 312.177C82.3686 310.065 81.0956 310.254 80.0347 309.985C78.9738 309.717 79.6753 309.158 80.97 308.504C82.2647 307.851 81.6022 306.257 81.6022 306.257C81.6022 306.257 79.7965 303.344 80.4764 303.136C81.1562 302.928 81.3944 298.92 81.3944 298.92C81.3944 298.92 82.9359 294.197 82.6588 292.909C82.3816 291.621 83.9188 288.587 83.9188 288.587L84.5424 284.945C86.0605 282.918 86.6893 280.48 86.3134 278.081L86.5646 272.444C86.5646 272.444 88.9202 261.605 89.4485 256.075C89.7776 252.546 89.9421 247.722 90.0157 244.711C90.059 243.018 90.0764 241.9 90.0764 241.9L61.4236 238.318C61.3239 239.571 61.0935 240.813 60.7351 242.028C60.3843 243.4 59.8431 245.168 59.003 247.374C56.6561 253.695 57.704 258.5 57.704 258.5L57.613 266.585C57.613 266.585 54.8417 271.904 55.2964 273.782C55.568 274.899 55.6958 276.04 55.6774 277.182C55.6774 277.182 49.5113 288.772 49.9616 292.207C50.4119 295.641 47.7056 300.975 47.7056 300.975C47.7056 300.975 46.8699 304.798 47.4891 305.867Z" fill="#575988"/>
<path opacity="0.05" d="M65.2731 276.15L56.5608 274.828C56.5608 274.828 61.3283 279.422 65.2731 276.15Z" fill="black"/>
<path opacity="0.1" d="M58.1543 267.42C58.1543 267.42 57.7213 270.11 59.5876 271.198C59.5702 271.19 56.2144 270.612 58.1543 267.42Z" fill="black"/>
<path opacity="0.1" d="M59.0723 258.836C59.0723 258.836 66.1608 264.341 68.8411 263.997C71.5215 263.653 59.0723 258.836 59.0723 258.836Z" fill="black"/>
<path opacity="0.1" d="M76.0249 278.984C76.0249 278.984 81.5372 280.276 81.6195 282.225C81.7018 284.175 76.0249 278.984 76.0249 278.984Z" fill="black"/>
<path opacity="0.05" d="M73.7257 303.163C73.7257 303.163 81.52 304.704 79.2597 305.501C76.9993 306.298 73.297 306.872 73.297 306.872C73.297 306.872 70.7595 306.91 73.7257 303.163Z" fill="black"/>
<g opacity="0.05">
<path opacity="0.05" d="M80.7882 306.94C80.9899 306.839 81.1631 306.7 81.295 306.532C81.4268 306.365 81.5141 306.174 81.5503 305.973L81.6239 306.098C81.6239 306.098 82.2907 307.688 80.9917 308.365C80.8445 308.436 80.7059 308.512 80.5587 308.584C80.3292 308.538 80.078 308.501 79.8399 308.44C78.7833 308.157 79.4891 307.598 80.7882 306.94Z" fill="black"/>
<path opacity="0.05" d="M70.6816 306.14C70.4738 305.958 70.5041 305.512 70.6816 304.942C70.9799 305.469 71.1086 306.056 71.054 306.642C70.9755 306.452 70.8481 306.28 70.6816 306.14Z" fill="black"/>
<path opacity="0.05" d="M73.167 277.276C73.4254 277.974 73.5711 278.7 73.6 279.433C73.4726 278.923 73.2899 278.425 73.0544 277.945C73.0544 277.945 73.1021 277.684 73.167 277.276Z" fill="black"/>
<path opacity="0.05" d="M55.3141 273.623C55.2698 273.413 55.2537 273.198 55.2662 272.985C55.3489 273.423 55.4011 273.827 55.4316 274.182C55.3968 274.001 55.3576 273.816 55.3141 273.623Z" fill="black"/>
<path opacity="0.05" d="M72.4439 297.938C72.3138 297.516 72.2669 297.077 72.3054 296.642C72.5285 297.166 72.6344 297.723 72.6171 298.281C72.5751 298.161 72.5169 298.046 72.4439 297.938Z" fill="black"/>
<path opacity="0.05" d="M70.3134 308.829C70.6761 310.01 70.9295 311.214 71.0712 312.43L79.0864 313.514C79.8572 312.614 80.5067 311.639 81.0219 310.609C81.1259 310.424 81.2038 310.257 81.2731 310.106C81.7451 310.314 81.9183 310.76 81.2255 312.014C80.7097 313.042 80.0618 314.015 79.2942 314.916L71.2617 313.839C71.2617 313.839 70.8287 310.159 70.0536 309.438C69.6942 309.079 69.9627 308.916 70.3134 308.829Z" fill="black"/>
<path opacity="0.05" d="M81.4117 298.761C81.4117 298.761 81.1692 302.77 80.4937 302.977C80.1863 302.301 79.9871 301.666 80.2902 301.572C80.9657 301.36 81.2125 297.356 81.2125 297.356C81.2125 297.356 82.7541 292.637 82.477 291.345C82.1998 290.053 83.7327 287.027 83.7327 287.027L84.3606 283.381C85.8787 281.354 86.5075 278.916 86.1316 276.517L86.3784 270.88C86.3784 270.88 88.7254 260.023 89.2364 254.511C89.5611 250.982 89.7257 246.158 89.8036 243.147C89.8036 242.603 89.8296 242.119 89.8383 241.711L90.0678 241.741C90.0678 241.741 90.0678 242.875 90.0071 244.548C89.9335 247.57 89.769 252.387 89.4399 255.916C88.9289 261.424 86.5863 272.286 86.5863 272.286L86.3351 277.918C86.7111 280.318 86.0839 282.754 84.5684 284.783L83.9362 288.429C83.9362 288.429 82.399 291.451 82.6761 292.751C82.9533 294.05 81.4117 298.761 81.4117 298.761Z" fill="black"/>
<path opacity="0.05" d="M57.1237 311.213C57.8127 310.409 58.2888 309.481 58.518 308.497C59.3104 309.169 58.2582 311.651 57.3272 312.615C56.3962 313.578 49.3943 314.035 48.1472 312.075L48.1948 310.968C49.9269 312.585 56.197 312.173 57.1237 311.213Z" fill="black"/>
<path opacity="0.05" d="M47.2899 304.296C47.634 304.866 47.9236 305.46 48.156 306.072L48.117 306.884C47.9354 306.479 47.7302 306.083 47.5021 305.698C47.3113 305.234 47.2346 304.741 47.2769 304.251L47.2899 304.296Z" fill="black"/>
<path opacity="0.05" d="M56.9722 305.55C56.7379 305.095 56.5383 304.627 56.3746 304.149C56.3746 304.149 57.4962 304.417 59.3755 302.619C60.7438 301.308 60.93 298.757 60.8174 297.08C61.1119 298.081 61.4626 302.222 59.5833 304.02C58.3449 305.199 57.4399 305.49 56.9722 305.55Z" fill="black"/>
<path opacity="0.05" d="M61.0036 292.781C60.8353 293.923 60.7399 295.072 60.7178 296.223C60.692 296.039 60.6544 295.858 60.6052 295.678C60.3151 294.677 60.7957 291.379 60.7957 291.379C60.7957 291.379 60.8347 289.052 61.3976 288.315C61.9605 287.579 63.2856 283.317 63.2856 283.317C63.2856 283.317 63.3505 281.866 64.3161 281.141C65.2818 280.416 66.0136 277.473 66.0136 277.473C66.5909 276.75 66.8646 275.876 66.7887 274.998C66.6544 273.54 68.0531 272.014 68.0531 272.014L70.5949 265.818L72.9332 261.182L74.0114 263.955C74.0114 263.955 74.0114 264.295 74.0114 264.839L73.1454 262.573L70.8071 267.204L68.2653 273.404C68.2653 273.404 66.8666 274.915 67.0008 276.388C67.079 277.267 66.805 278.141 66.2257 278.863C66.2257 278.863 65.4939 281.806 64.5283 282.528C63.5627 283.249 63.5021 284.704 63.5021 284.704C63.5021 284.704 62.177 288.965 61.6141 289.706C61.0512 290.446 61.0036 292.781 61.0036 292.781Z" fill="black"/>
</g>
<path d="M60.1246 185.707L60.5316 187.845L60.4623 188.79L60.4103 189.485L63.1773 189.829L63.5108 189.338C64.1256 188.45 65.3987 186.64 65.8014 186.368C66.3297 186.009 67.5075 180.142 66.3903 180.452C65.7091 180.657 65.1385 181.074 64.7882 181.623C64.7882 181.623 59.3062 181.986 60.1246 185.707Z" fill="#B28B67"/>
<path opacity="0.1" d="M60.4103 189.485L63.1773 189.829L63.5107 189.338C63.1537 188.957 62.6576 188.696 62.1057 188.597C61.5538 188.498 60.9796 188.567 60.4796 188.794L60.4103 189.485Z" fill="black"/>
<path d="M59.6569 190.611L63.2899 191.476L63.3852 191L63.6493 189.727C63.459 189.488 63.2165 189.285 62.9358 189.129C62.6551 188.972 62.3417 188.866 62.0136 188.816C61.6856 188.766 61.3494 188.772 61.0244 188.836C60.6995 188.9 60.3922 189.019 60.1202 189.187L59.9123 189.833L59.6569 190.611Z" fill="#DCE6F2"/>
<path d="M119.214 187.936L123.042 189.901C123.042 189.901 123.202 189.632 123.427 189.266C123.83 188.597 124.428 187.592 124.597 187.23C124.852 186.674 126.515 186.013 126.515 186.013C130.763 182.738 126.012 179.644 126.012 179.644C123.631 175.023 120.487 180.996 120.487 180.996C120.487 180.996 119.946 184.181 120.219 184.396C120.492 184.612 120.453 185.496 120.453 185.496C120.049 186.109 119.704 186.751 119.422 187.415C119.288 187.728 119.214 187.936 119.214 187.936Z" fill="#997451"/>
<path opacity="0.1" d="M119.214 187.936L123.042 189.901C123.042 189.901 123.202 189.632 123.427 189.266C122.89 188.847 120.994 187.377 120.349 187.437C120.041 187.464 119.73 187.464 119.422 187.437C119.288 187.728 119.214 187.936 119.214 187.936Z" fill="black"/>
<path d="M118.768 188.945L123.098 190.981L123.219 190.158L123.306 189.591C123.306 189.591 120.847 187.604 120.093 187.649C119.709 187.683 119.321 187.669 118.941 187.607L118.863 188.295L118.768 188.945Z" fill="#DCE6F2"/>
<path d="M70.1576 200.154C70.1576 200.154 89.2407 202.685 85.7029 201.552C83.2391 200.758 82.3081 199.342 82.1695 197.8C82.122 196.478 82.4181 195.163 83.0355 193.954C83.5368 192.916 84.1563 191.923 84.8845 190.992C84.8845 190.992 70.543 183.471 73.1931 189.961C73.6026 190.943 73.8377 191.974 73.8902 193.017C73.9318 194.053 73.7587 195.088 73.3792 196.07C72.757 197.664 71.6421 199.077 70.1576 200.154Z" fill="#A8815D"/>
<path opacity="0.1" d="M73.2103 189.961C73.6199 190.943 73.855 191.974 73.9075 193.017C75.2412 194.071 76.7568 194.056 78.701 194.121C80.1949 194.173 81.8317 194.544 83.0312 193.954C83.5325 192.916 84.1519 191.923 84.8802 190.992C84.8802 190.992 70.5603 183.471 73.2103 189.961Z" fill="black"/>
<path d="M79.2465 194.578C83.6254 194.578 87.1751 191.481 87.1751 187.66C87.1751 183.84 83.6254 180.743 79.2465 180.743C74.8677 180.743 71.318 183.84 71.318 187.66C71.318 191.481 74.8677 194.578 79.2465 194.578Z" fill="#B28B67"/>
<path opacity="0.1" d="M70.1576 200.154C70.1576 200.154 89.2407 202.685 85.7029 201.552C83.2391 200.758 82.3081 199.342 82.1695 197.8C81.2558 196.867 79.3679 196.153 78.1511 195.764C77.0432 195.4 75.8339 195.342 74.687 195.598C74.2295 195.698 73.7917 195.857 73.3879 196.07C72.7632 197.665 71.6453 199.078 70.1576 200.154Z" fill="black"/>
<path opacity="0.1" d="M59.6569 190.611L63.2899 191.476L63.3851 191C63.0151 190.519 62.484 190.148 61.8642 189.939C61.2444 189.731 60.5659 189.693 59.921 189.833L59.6569 190.611Z" fill="black"/>
<path opacity="0.1" d="M118.768 188.945L123.098 190.981L123.22 190.158C121.816 189.45 120.354 188.833 118.846 188.314L118.768 188.945Z" fill="black"/>
<path opacity="0.1" d="M60.7178 242.028C68.0791 243.301 78.6014 244.986 80.2945 244.597C81.7018 244.276 86.1403 244.465 89.9984 244.711C90.0417 243.018 90.0591 241.9 90.0591 241.9L61.4063 238.318C61.3066 239.571 61.0762 240.813 60.7178 242.028Z" fill="black"/>
<path d="M53.3867 240.26C53.3867 240.26 77.6617 244.741 80.3161 244.133C82.9705 243.524 96.4027 244.73 96.4027 244.73C102.305 248.477 100.005 243.165 100.005 243.165C100.005 243.165 100.659 240.453 100.005 238.22C99.5866 236.585 99.3245 234.922 99.2217 233.248C99.2217 233.248 99.5118 229.765 98.8146 228.93C98.1175 228.095 97.5156 222.251 97.5156 222.251C97.5156 222.251 97.0262 218.28 97.1302 217.411C97.2341 216.542 97.0782 214.091 97.0782 214.091L96.3897 209.995C101.408 209.584 116.949 201.96 116.949 201.96C117.815 199.255 123.743 193.051 123.743 193.051C123.85 192.517 124.03 191.995 124.28 191.499C124.713 190.584 118.811 188.525 118.811 188.525C118.811 188.525 114.13 193.138 113.16 194.385C112.191 195.632 108.869 197.906 108.869 197.906C108.375 197.846 107.871 197.886 107.397 198.023H107.319C106.237 198.358 105.216 198.827 104.288 199.417C102.788 199.336 101.31 199.765 100.166 200.615C100.166 200.615 97.4506 200.177 96.97 200.566C96.4893 200.955 94.1727 200.471 94.1727 200.471C94.1727 200.471 92.0076 196.096 90.4444 197.294C88.8812 198.492 82.3599 198.216 82.3599 198.216C81.5415 197.181 79.463 196.391 78.164 195.976C77.0566 195.61 75.8466 195.551 74.6999 195.809C74.2023 195.916 73.7293 196.096 73.3012 196.342L69.2135 199.576C69.2135 199.576 68.1353 198.261 68.2825 197.974C68.4298 197.687 66.9835 197.407 66.9835 197.407C66.9835 197.407 65.0739 196.818 64.3507 196.622C63.6276 196.425 62.9218 197.09 62.8611 197.15C63.1917 196.335 63.3388 195.472 63.2942 194.608C63.1426 193.497 64.1818 192.541 64.1818 192.541C62.0731 187.468 56.63 191.476 56.63 191.476C56.63 191.476 55.9069 194.185 56.3962 195.254C56.8855 196.323 55.7207 198.488 55.8246 199.073C55.9285 199.659 55.4912 200.634 55.4436 201.737C55.3959 202.84 55.9675 204.956 56.3096 205.893C56.6517 206.829 59.7737 209.036 59.7737 209.036C59.7737 209.036 59.83 212.353 61.1421 214.325C62.4541 216.297 61.3023 222.825 61.3023 222.825C61.3023 222.825 59.7434 227.891 58.007 229.463C56.2706 231.035 53.3867 240.26 53.3867 240.26Z" fill="#656691"/>
<path opacity="0.1" d="M90.6956 203.229C90.6956 203.229 91.514 201.34 92.1852 201.185C92.8579 200.995 93.5148 200.764 94.151 200.494L93.7527 199.765C93.7527 199.765 91.2239 200.282 90.7995 200.898C90.3751 201.514 90.6956 203.229 90.6956 203.229Z" fill="black"/>
<path opacity="0.1" d="M104.266 199.44C104.375 200.025 110.277 200.747 110.277 200.747L107.397 198.023H107.323C106.231 198.363 105.201 198.84 104.266 199.44Z" fill="black"/>
<path d="M121.765 192.504C122.059 192.504 122.297 192.296 122.297 192.039C122.297 191.782 122.059 191.574 121.765 191.574C121.471 191.574 121.232 191.782 121.232 192.039C121.232 192.296 121.471 192.504 121.765 192.504Z" fill="#575988"/>
<path d="M121.042 193.41C121.336 193.41 121.574 193.202 121.574 192.946C121.574 192.689 121.336 192.481 121.042 192.481C120.747 192.481 120.509 192.689 120.509 192.946C120.509 193.202 120.747 193.41 121.042 193.41Z" fill="#575988"/>
<path d="M120.336 194.245C120.63 194.245 120.868 194.037 120.868 193.781C120.868 193.524 120.63 193.316 120.336 193.316C120.042 193.316 119.803 193.524 119.803 193.781C119.803 194.037 120.042 194.245 120.336 194.245Z" fill="#575988"/>
<path d="M119.6 195.152C119.894 195.152 120.132 194.944 120.132 194.687C120.132 194.431 119.894 194.223 119.6 194.223C119.305 194.223 119.067 194.431 119.067 194.687C119.067 194.944 119.305 195.152 119.6 195.152Z" fill="#575988"/>
<path d="M56.8336 192.908C57.0728 192.908 57.2667 192.739 57.2667 192.53C57.2667 192.321 57.0728 192.152 56.8336 192.152C56.5945 192.152 56.4006 192.321 56.4006 192.53C56.4006 192.739 56.5945 192.908 56.8336 192.908Z" fill="#575988"/>
<path d="M56.7296 193.762C56.9688 193.762 57.1627 193.593 57.1627 193.384C57.1627 193.175 56.9688 193.006 56.7296 193.006C56.4905 193.006 56.2966 193.175 56.2966 193.384C56.2966 193.593 56.4905 193.762 56.7296 193.762Z" fill="#575988"/>
<path d="M56.63 194.615C56.8692 194.615 57.063 194.446 57.063 194.238C57.063 194.029 56.8692 193.86 56.63 193.86C56.3909 193.86 56.197 194.029 56.197 194.238C56.197 194.446 56.3909 194.615 56.63 194.615Z" fill="#575988"/>
<path opacity="0.1" d="M89.9682 218.972C90.0331 218.908 74.2929 234.941 63.0604 224.994C63.0604 224.994 81.3771 227.789 89.9682 218.972Z" fill="black"/>
<path opacity="0.1" d="M98.2128 227.861C98.2128 227.861 89.219 227.774 88.1797 229.996L88.0758 232.342C88.3263 232.474 88.6109 232.548 88.9032 232.558C89.1954 232.568 89.4858 232.513 89.7473 232.398C90.6739 232.002 96.2079 229.777 98.0742 231.001L98.2128 227.861Z" fill="black"/>
<path d="M98.0439 227.854C98.0439 227.854 89.4484 227.77 88.4525 229.89L88.3529 232.126C88.5921 232.253 88.8644 232.324 89.144 232.334C89.4235 232.343 89.7012 232.29 89.9507 232.179C90.8168 231.802 96.1299 229.682 97.9139 230.846L98.0439 227.854Z" fill="#656691"/>
<path opacity="0.1" d="M94.0601 210.679C93.0592 212.5 91.8135 214.211 90.3492 215.776C88.749 217.506 86.8359 218.996 84.6853 220.188C84.6853 220.188 93.861 211.737 94.0601 210.679Z" fill="black"/>
<path opacity="0.1" d="M97.3986 201.673C97.3986 201.673 95.6666 207.268 91.7045 209.055L97.3986 201.673Z" fill="black"/>
<path opacity="0.1" d="M99.672 202.319C99.7153 202.217 100.807 206.829 94.3849 209.145C94.3849 209.145 97.0999 208.439 99.672 202.319Z" fill="black"/>
<path opacity="0.1" d="M60.6181 197.218C60.7177 197.218 57.4268 198.9 56.5175 199.697C56.5391 199.697 58.7258 197.037 60.6181 197.218Z" fill="black"/>
<path d="M81.1129 194C81.0317 194.366 80.7951 194.693 80.4504 194.914C80.2134 195.004 79.9552 195.045 79.6969 195.031C77.2764 195.084 74.7562 195.092 72.5608 194.204C72.15 194.061 71.7857 193.833 71.4999 193.539C71.1189 193.101 71.0669 192.523 70.9327 191.986C70.6642 190.943 70.0363 190.003 69.599 189.001C68.8625 187.316 68.6722 185.486 69.049 183.712C69.1358 183.17 69.3656 182.653 69.7202 182.201C70.3957 181.427 71.5779 181.143 72.4526 180.535C73.3272 179.927 73.9162 178.975 74.9294 178.529C75.8388 178.129 76.9256 178.216 77.9259 178.401C79.8894 178.76 81.7561 179.443 83.4252 180.414C83.9838 180.743 84.5987 181.117 85.2655 181.03C85.8372 180.892 86.3361 180.585 86.6772 180.161C87.106 181.122 87.2634 182.159 87.1362 183.184C87.1058 183.333 87.1058 183.487 87.1362 183.637C87.2101 183.821 87.3282 183.99 87.4826 184.132C88.0499 184.755 88.3833 185.722 87.7684 186.312C87.4999 186.569 87.0972 186.689 86.8374 186.965C86.3697 187.434 86.4867 188.136 86.4693 188.76C86.485 188.976 86.4147 189.191 86.2702 189.368C86.1358 189.467 85.9746 189.535 85.8018 189.565C85.629 189.594 85.4504 189.585 85.2829 189.538C84.9489 189.439 84.5958 189.398 84.2436 189.417C83.8679 189.511 83.5398 189.714 83.3126 189.991C82.1392 191.178 81.6542 192.526 81.1129 194Z" fill="#2D293D"/>
<g opacity="0.1">
<path opacity="0.1" d="M71.2617 192.995C71.546 193.291 71.9106 193.521 72.3226 193.663C74.518 194.551 77.0382 194.54 79.4587 194.491C79.7175 194.505 79.9762 194.463 80.2122 194.37C80.5576 194.151 80.7945 193.825 80.8747 193.459C81.4073 191.982 81.901 190.637 83.0745 189.436C83.3009 189.157 83.6291 188.953 84.0054 188.858C84.3575 188.84 84.7102 188.881 85.0447 188.979C85.2121 189.027 85.391 189.037 85.564 189.007C85.737 188.977 85.8982 188.909 86.032 188.809C86.1769 188.634 86.2473 188.42 86.2312 188.204C86.2312 187.581 86.1316 186.878 86.5992 186.406C86.859 186.145 87.2617 186.028 87.5302 185.756C87.7045 185.564 87.8162 185.334 87.8536 185.09C87.8909 184.847 87.8525 184.599 87.7424 184.374C88.1408 184.974 88.2923 185.734 87.7727 186.229C87.5042 186.485 87.1058 186.606 86.8417 186.882C86.374 187.351 86.4953 188.053 86.478 188.677C86.4943 188.894 86.4222 189.109 86.2745 189.285C86.1403 189.384 85.9791 189.452 85.8062 189.482C85.6334 189.512 85.4547 189.502 85.2872 189.455C84.9547 189.356 84.603 189.314 84.2523 189.334C83.8743 189.428 83.5445 189.632 83.3169 189.912C82.1478 191.11 81.6542 192.458 81.1172 193.932C81.1097 194.083 81.0662 194.231 80.9896 194.367C80.913 194.502 80.8049 194.623 80.6722 194.72C80.5394 194.817 80.385 194.889 80.2186 194.932C80.0522 194.974 79.8775 194.986 79.7056 194.967C77.285 195.016 74.7648 195.023 72.5651 194.136C72.1546 193.993 71.7904 193.765 71.5042 193.471C71.3613 193.298 71.2543 193.105 71.1881 192.9C71.2096 192.933 71.2343 192.965 71.2617 192.995Z" fill="black"/>
<path opacity="0.1" d="M87.1188 183.44C87.0113 183.331 86.9343 183.202 86.8936 183.063C86.8633 182.913 86.8633 182.759 86.8936 182.609C86.9982 181.764 86.9099 180.909 86.6338 180.093L86.6771 180.052C87.1096 181.012 87.2686 182.049 87.1404 183.074C87.1207 183.195 87.1134 183.318 87.1188 183.44Z" fill="black"/>
</g>
<path opacity="0.1" d="M82.3383 198.239C82.3383 198.239 72.3789 199.051 71.5562 197.721L82.3383 198.239Z" fill="black"/>
<path opacity="0.1" d="M63.2553 194.019C63.2553 194.019 57.7516 193.841 56.4656 195.598L63.2553 194.019Z" fill="black"/>
</g>
<defs>
<linearGradient id="paint0_linear" x1="238.792" y1="260.087" x2="238.792" y2="56.7103" gradientUnits="userSpaceOnUse">
<stop stop-color="#808080" stop-opacity="0.25"/>
<stop offset="0.54" stop-color="#808080" stop-opacity="0.12"/>
<stop offset="1" stop-color="#808080" stop-opacity="0.1"/>
</linearGradient>
<linearGradient id="paint1_linear" x1="88703.4" y1="125607" x2="88703.4" y2="68837.9" gradientUnits="userSpaceOnUse">
<stop stop-color="#808080" stop-opacity="0.25"/>
<stop offset="0.54" stop-color="#808080" stop-opacity="0.12"/>
<stop offset="1" stop-color="#808080" stop-opacity="0.1"/>
</linearGradient>
<linearGradient id="paint2_linear" x1="-74183.4" y1="124363" x2="-72255.3" y2="69113.8" gradientUnits="userSpaceOnUse">
<stop stop-color="#808080" stop-opacity="0.25"/>
<stop offset="0.54" stop-color="#808080" stop-opacity="0.12"/>
<stop offset="1" stop-color="#808080" stop-opacity="0.1"/>
</linearGradient>
<clipPath id="clip0">
<rect width="495" height="326" fill="white"/>
</clipPath>
</defs>
</svg>
