<svg width="23" height="17" viewBox="0 0 23 17" fill="none" xmlns="http://www.w3.org/2000/svg">
<path d="M11.6224 16.943C11.3198 16.943 11.028 16.845 10.8006 16.667C9.94193 15.9958 9.11403 15.3651 8.3836 14.8087L8.37987 14.8058C6.23836 13.1746 4.38909 11.7659 3.1024 10.3782C1.66408 8.82688 0.994141 7.35599 0.994141 5.74912C0.994141 4.18792 1.59305 2.74761 2.68043 1.69333C3.78078 0.626579 5.29062 0.0390625 6.9323 0.0390625C8.15931 0.0390625 9.28302 0.385803 10.2721 1.06957C10.7713 1.41472 11.2238 1.83713 11.6224 2.32984C12.0212 1.83713 12.4735 1.41472 12.9728 1.06957C13.9619 0.385803 15.0856 0.0390625 16.3126 0.0390625C17.9541 0.0390625 19.4641 0.626579 20.5645 1.69333C21.6519 2.74761 22.2506 4.18792 22.2506 5.74912C22.2506 7.35599 21.5808 8.82688 20.1425 10.3781C18.8558 11.7659 17.0067 13.1745 14.8655 14.8055C14.1338 15.3628 13.3046 15.9945 12.4439 16.6673C12.2167 16.845 11.9248 16.943 11.6224 16.943ZM6.9323 1.15205C5.64253 1.15205 4.45769 1.61215 3.59574 2.44769C2.72097 3.29585 2.23915 4.46827 2.23915 5.74912C2.23915 7.10057 2.80108 8.30923 4.06101 9.66808C5.27878 10.9815 7.0901 12.3613 9.18733 13.9588L9.19123 13.9617C9.92441 14.5203 10.7556 15.1535 11.6206 15.8295C12.4908 15.1521 13.3233 14.518 14.0579 13.9586C16.155 12.361 17.9661 10.9815 19.1839 9.66808C20.4437 8.30923 21.0056 7.10057 21.0056 5.74912C21.0056 4.46827 20.5238 3.29585 19.649 2.44769C18.7872 1.61215 17.6022 1.15205 16.3126 1.15205C15.3678 1.15205 14.5003 1.42052 13.7344 1.94991C13.0518 2.42189 12.5763 3.01854 12.2975 3.43602C12.1541 3.6507 11.9018 3.77885 11.6224 3.77885C11.343 3.77885 11.0906 3.6507 10.9472 3.43602C10.6686 3.01854 10.1931 2.42189 9.51038 1.94991C8.74444 1.42052 7.87697 1.15205 6.9323 1.15205Z" fill="#219653"/>
</svg>
