<svg width="18" height="18" viewBox="0 0 18 18" fill="none" xmlns="http://www.w3.org/2000/svg">
<g clip-path="url(#clip0)">
<path d="M16.9547 11.0297C16.6932 10.8172 16.3195 10.8065 16.0459 11.0037C14.8394 11.8744 13.408 12.3201 11.9066 12.2929C11.498 12.2855 11.0891 12.242 10.6912 12.1637C10.5325 12.1323 10.3783 12.2332 10.3466 12.3888C10.3148 12.5444 10.4177 12.6959 10.5763 12.7271C11.0085 12.8123 11.4526 12.8595 11.8961 12.8675C13.5272 12.8971 15.0822 12.4127 16.3931 11.4668C16.4497 11.426 16.527 11.4282 16.5811 11.4722C16.6352 11.5162 16.6518 11.5903 16.6215 11.6524C15.959 13.0087 14.9213 14.1502 13.6207 14.9534C12.2859 15.7776 10.7429 16.1981 9.15875 16.1694C4.68704 16.0884 1.1137 12.4534 1.19318 8.06633C1.22134 6.51204 1.7056 5.01459 2.59357 3.73587C3.45884 2.48976 4.65917 1.51381 6.06494 0.913426C6.12926 0.885907 6.20398 0.904885 6.24682 0.95955C6.28962 1.01418 6.28914 1.09005 6.24552 1.144C5.23447 2.39512 4.68474 3.90215 4.65575 5.5022C4.62767 7.05173 5.09525 8.53922 6.00796 9.80393C6.90201 11.0428 8.14159 11.962 9.59272 12.4621C9.74548 12.5146 9.9125 12.436 9.96605 12.2863C10.0195 12.1366 9.93919 11.9725 9.78656 11.9199C7.01585 10.965 5.18934 8.39019 5.24147 5.51285C5.26816 4.03993 5.77414 2.65275 6.70467 1.50125C6.91556 1.24029 6.91816 0.873551 6.71106 0.609381C6.50386 0.345045 6.14162 0.253579 5.83065 0.386539C4.3237 1.03012 3.03687 2.07638 2.10936 3.41204C1.15698 4.78345 0.637649 6.38923 0.607455 8.05572C0.522231 12.7596 4.35369 16.6572 9.14833 16.7441C10.8469 16.7748 12.5014 16.3239 13.933 15.4398C15.3272 14.5789 16.4396 13.3552 17.1499 11.9011C17.2965 11.6007 17.2163 11.2424 16.9547 11.0297Z" fill="black"/>
<path d="M8.61601 5.53611C9.30794 5.54865 9.86092 6.11114 9.84862 6.78997C9.84575 6.94863 9.97454 7.07965 10.1363 7.08258C10.298 7.08551 10.4314 6.95924 10.4343 6.80058C10.4466 6.12175 11.0196 5.57966 11.7115 5.59219C11.8732 5.59512 12.0067 5.46886 12.0096 5.3102C12.0124 5.15154 11.8836 5.02052 11.7219 5.01759C11.03 5.00506 10.477 4.44253 10.4893 3.7637C10.4922 3.60504 10.3634 3.47402 10.2017 3.47109C10.04 3.46816 9.90652 3.59443 9.90364 3.75309C9.89134 4.43192 9.31835 4.97405 8.62642 4.96151C8.4647 4.95858 8.33124 5.08484 8.32837 5.2435C8.32549 5.40216 8.45429 5.53318 8.61601 5.53611ZM10.1788 4.73473C10.3176 4.95431 10.5029 5.14283 10.7215 5.28686C10.4978 5.42285 10.3058 5.60453 10.1592 5.81894C10.0204 5.59936 9.83504 5.41087 9.61639 5.26684C9.84011 5.13086 10.0322 4.94914 10.1788 4.73473Z" fill="black"/>
<path d="M12.6941 9.3058C13.1964 9.3149 13.6124 8.92136 13.6214 8.42855C13.6303 7.9357 13.2288 7.52732 12.7265 7.51822C12.2241 7.50911 11.8082 7.90269 11.7992 8.39553C11.7904 8.88834 12.1918 9.2967 12.6941 9.3058ZM12.7161 8.09288C12.8954 8.09613 13.0388 8.24195 13.0356 8.41797C13.0324 8.59392 12.8839 8.73445 12.7045 8.7312C12.5251 8.72795 12.3818 8.58216 12.385 8.40618C12.3882 8.23016 12.5367 8.08963 12.7161 8.09288Z" fill="black"/>
<path d="M1.39761 14.3545C0.895258 14.3454 0.479308 14.739 0.470379 15.2318C0.461449 15.7247 0.86287 16.133 1.36523 16.1421C1.86758 16.1512 2.28353 15.7577 2.29246 15.2648C2.30139 14.772 1.89997 14.3636 1.39761 14.3545ZM1.37564 15.5675C1.19626 15.5642 1.05291 15.4184 1.0561 15.2424C1.05929 15.0664 1.20782 14.9259 1.3872 14.9292C1.56658 14.9324 1.70993 15.0782 1.70674 15.2542C1.70355 15.4302 1.55505 15.5707 1.37564 15.5675Z" fill="black"/>
<path d="M10.1 9.08557C10.3027 9.08925 10.47 8.93096 10.4736 8.73203C10.4772 8.53309 10.3158 8.36885 10.113 8.36517C9.91023 8.3615 9.74293 8.51979 9.73932 8.71872C9.73572 8.91765 9.89718 9.0819 10.1 9.08557Z" fill="black"/>
<path d="M0.431981 13.2369C0.634753 13.2406 0.802054 13.0823 0.805659 12.8834C0.809263 12.6845 0.647805 12.5202 0.445033 12.5165C0.24226 12.5129 0.074959 12.6712 0.0713547 12.8701C0.0677505 13.069 0.229208 13.2333 0.431981 13.2369Z" fill="black"/>
<path d="M12.5553 3.56055C12.758 3.56422 12.9253 3.40594 12.9289 3.207C12.9326 3.00807 12.7711 2.84382 12.5683 2.84015C12.3656 2.83647 12.1983 2.99476 12.1946 3.1937C12.191 3.39263 12.3525 3.55688 12.5553 3.56055Z" fill="black"/>
</g>
<defs>
<clipPath id="clip0">
<rect width="17.1248" height="16.8005" fill="white" transform="translate(0.304688 0.000488281) rotate(1.03796)"/>
</clipPath>
</defs>
</svg>
