<svg width="18" height="17" viewBox="0 0 18 17" fill="none" xmlns="http://www.w3.org/2000/svg">
<g clip-path="url(#clip0)">
<path d="M16.917 10.9224C16.6541 10.7116 16.2804 10.7032 16.0081 10.9022C14.8071 11.7805 13.3786 12.2354 11.8771 12.2178C11.4684 12.2131 11.0593 12.1722 10.6609 12.0964C10.502 12.066 10.3484 12.1679 10.3177 12.3237C10.2869 12.4795 10.3908 12.6303 10.5496 12.6605C10.9823 12.7429 11.4267 12.7873 11.8703 12.7925C13.5015 12.8116 15.0534 12.3173 16.3582 11.3631C16.4145 11.3218 16.4919 11.3236 16.5463 11.3672C16.6007 11.4108 16.6177 11.4848 16.5878 11.5472C15.934 12.9077 14.9036 14.0558 13.6082 14.8673C12.2787 15.7 10.7384 16.1304 9.1541 16.1119C4.68197 16.0595 1.08543 12.4474 1.13683 8.05991C1.15504 6.50547 1.6297 5.00495 2.50948 3.72058C3.36676 2.46895 4.56081 1.48534 5.9627 0.87597C6.02685 0.84804 6.1017 0.866539 6.14488 0.920929C6.18802 0.975285 6.18804 1.05116 6.14476 1.10539C5.14174 2.36295 4.60166 3.87347 4.58292 5.47367C4.56476 7.02335 5.04185 8.50782 5.96264 9.76665C6.86459 10.9997 8.11003 11.911 9.56433 12.4019C9.71743 12.4534 9.88394 12.3736 9.93654 12.2236C9.98907 12.0736 9.90766 11.91 9.7547 11.8584C6.97794 10.9212 5.13498 8.35818 5.1687 5.48057C5.18595 4.00751 5.68304 2.61712 6.60618 1.45969C6.8154 1.19738 6.81565 0.830636 6.60687 0.567796C6.39798 0.304791 6.03516 0.215646 5.72505 0.350594C4.22226 1.00381 2.94215 2.05828 2.02321 3.39985C1.07962 4.77733 0.570577 6.3864 0.551051 8.05305C0.495936 12.7574 4.35226 16.6304 9.14737 16.6866C10.8461 16.7065 12.4977 16.2449 13.9236 15.3517C15.3122 14.4819 16.4168 13.2511 17.1177 11.7924C17.2624 11.4912 17.18 11.1334 16.917 10.9224Z" fill="white"/>
<path d="M8.5435 5.48231C9.2355 5.49042 9.79206 6.04936 9.78411 6.72826C9.78225 6.88693 9.91188 7.01712 10.0736 7.01902C10.2354 7.02091 10.368 6.8938 10.3699 6.73512C10.3778 6.05622 10.9473 5.51047 11.6393 5.51858C11.801 5.52048 11.9337 5.39336 11.9355 5.23468C11.9374 5.07601 11.8078 4.94582 11.646 4.94392C10.954 4.93582 10.3975 4.37684 10.4054 3.69795C10.4073 3.53927 10.2777 3.40908 10.1159 3.40719C9.95419 3.40529 9.82155 3.53241 9.81969 3.69108C9.81174 4.36998 9.24223 4.91576 8.55023 4.90766C8.38849 4.90576 8.25585 5.03288 8.25399 5.19155C8.25213 5.35023 8.38176 5.48042 8.5435 5.48231ZM10.1011 4.67095C10.2413 4.88963 10.4278 5.07696 10.6474 5.21959C10.4245 5.35701 10.2337 5.53992 10.0884 5.75526C9.94826 5.53657 9.7617 5.34927 9.54214 5.20664C9.76498 5.06923 9.95588 4.88629 10.1011 4.67095Z" fill="white"/>
<path d="M12.6456 9.2258C13.148 9.23168 13.5614 8.83548 13.5672 8.34263C13.573 7.84974 13.1689 7.44393 12.6665 7.43804C12.1641 7.43216 11.7507 7.82839 11.7449 8.32128C11.7392 8.81413 12.1432 9.21991 12.6456 9.2258ZM12.6598 8.01276C12.8392 8.01487 12.9835 8.15976 12.9814 8.3358C12.9793 8.51176 12.8317 8.65324 12.6523 8.65114C12.4729 8.64904 12.3286 8.50417 12.3307 8.32817C12.3328 8.15214 12.4804 8.01066 12.6598 8.01276Z" fill="white"/>
<path d="M1.38174 14.3467C0.879337 14.3408 0.465914 14.737 0.460139 15.2299C0.454364 15.7228 0.858391 16.1286 1.36079 16.1345C1.8632 16.1404 2.27662 15.7442 2.28239 15.2513C2.28817 14.7584 1.88414 14.3526 1.38174 14.3467ZM1.36753 15.5598C1.18813 15.5577 1.04386 15.4128 1.04592 15.2368C1.04798 15.0607 1.19561 14.9193 1.37501 14.9214C1.5544 14.9235 1.69868 15.0684 1.69661 15.2444C1.69455 15.4204 1.54696 15.5619 1.36753 15.5598Z" fill="white"/>
<path d="M10.05 9.02226C10.2528 9.02463 10.4191 8.86528 10.4214 8.66632C10.4237 8.46737 10.2612 8.30416 10.0584 8.30179C9.85565 8.29941 9.68936 8.45877 9.68703 8.65772C9.6847 8.85667 9.84721 9.01988 10.05 9.02226Z" fill="white"/>
<path d="M0.408856 13.2354C0.611648 13.2378 0.777932 13.0784 0.780263 12.8795C0.782594 12.6805 0.620089 12.5173 0.417297 12.5149C0.214505 12.5125 0.0482203 12.6719 0.0458894 12.8709C0.0435585 13.0698 0.206064 13.233 0.408856 13.2354Z" fill="white"/>
<path d="M12.47 3.48161C12.6728 3.48398 12.8391 3.32463 12.8415 3.12568C12.8438 2.92672 12.6813 2.76351 12.4785 2.76114C12.2757 2.75876 12.1094 2.91812 12.1071 3.11707C12.1047 3.31602 12.2673 3.47923 12.47 3.48161Z" fill="white"/>
</g>
<defs>
<clipPath id="clip0">
<rect width="17.1248" height="16.8005" fill="white" transform="translate(0.196777) rotate(0.671233)"/>
</clipPath>
</defs>
</svg>
