<svg width="19" height="17" viewBox="0 0 19 17" fill="none" xmlns="http://www.w3.org/2000/svg">
<g clip-path="url(#clip0)">
<path d="M1.29698 12.0489C1.39268 12.1882 1.60373 12.2355 1.76832 12.1545L3.4518 11.331C3.61638 11.25 3.67223 11.0714 3.57654 10.9321C3.48084 10.7928 3.26979 10.7456 3.1052 10.8265L1.42173 11.6501C1.25714 11.7311 1.20129 11.9096 1.29698 12.0489Z" fill="white"/>
<path d="M1.42197 4.42837L3.10543 5.25192C3.27002 5.3329 3.48107 5.28565 3.57677 5.14636C3.67246 5.00708 3.61662 4.82847 3.45204 4.74749L1.76858 3.92393C1.60399 3.84295 1.39294 3.89021 1.29724 4.02949C1.20154 4.16881 1.25739 4.34738 1.42197 4.42837Z" fill="white"/>
<path d="M9.47367 2.2753C9.66458 2.28731 9.83079 2.16608 9.84498 2.00451C9.84627 1.99005 9.84627 1.97554 9.84498 1.96108L9.845 0.315623C9.85919 0.15406 9.71593 0.0134041 9.52502 0.00139548C9.3341 -0.0106132 9.1679 0.110619 9.15371 0.272183C9.15242 0.286647 9.15242 0.301152 9.15371 0.315616L9.15369 1.96107C9.13955 2.12259 9.2828 2.26329 9.47367 2.2753Z" fill="white"/>
<path d="M15.5487 11.3311L17.2321 12.1546C17.3967 12.2356 17.6078 12.1884 17.7035 12.0491C17.7992 11.9098 17.7433 11.7312 17.5787 11.6502L15.8953 10.8266C15.7307 10.7457 15.5196 10.7929 15.4239 10.9322C15.3282 11.0715 15.3841 11.2501 15.5487 11.3311Z" fill="white"/>
<path d="M9.47368 16.0788C9.66459 16.0908 9.8308 15.9695 9.84499 15.808C9.84627 15.7935 9.84627 15.779 9.84499 15.7645L9.845 14.1191C9.84396 13.9584 9.69023 13.8283 9.50032 13.8274C9.30888 13.8274 9.15372 13.9587 9.15371 14.1207L9.1537 15.7645C9.13955 15.9261 9.28281 16.0668 9.47368 16.0788Z" fill="white"/>
<path d="M12.7949 13.4519L13.7661 14.8766C13.8618 15.0159 14.0728 15.0631 14.2374 14.9821C14.402 14.9012 14.4579 14.7226 14.3622 14.5833L13.391 13.1586C13.2953 13.0193 13.0842 12.9721 12.9196 13.053C12.755 13.1341 12.6992 13.3126 12.7949 13.4519Z" fill="white"/>
<path d="M9.44902 10.6428C9.46612 10.6439 9.48326 10.6439 9.50035 10.6428C11.199 10.6428 12.5759 9.47758 12.576 8.0401C12.576 7.8781 12.4208 7.74679 12.2294 7.74678C12.0387 7.74767 11.8847 7.87873 11.8847 8.0401C11.8857 9.15356 10.8199 10.0569 9.50416 10.0578C9.50288 10.0578 9.50164 10.0578 9.50035 10.0578C9.30944 10.0458 9.14323 10.167 9.12904 10.3286C9.11485 10.4902 9.25811 10.6309 9.44902 10.6428Z" fill="white"/>
<path d="M0.0525736 8.06259C0.0652838 8.20743 0.201351 8.32262 0.372555 8.33338L2.31693 8.3334C2.50785 8.34541 2.67405 8.22418 2.68824 8.06262C2.70243 7.90105 2.55918 7.7604 2.36826 7.74839C2.35117 7.7473 2.33398 7.7473 2.31689 7.74839L0.372514 7.74837C0.181647 7.76033 0.0383878 7.90102 0.0525736 8.06259Z" fill="white"/>
<path d="M16.6323 8.33192C16.6494 8.33301 16.6666 8.33301 16.6836 8.33192L18.628 8.33194C18.8189 8.31994 18.9622 8.17925 18.948 8.01772C18.9353 7.87288 18.7992 7.75769 18.628 7.74693L16.6837 7.74691C16.4927 7.7349 16.3265 7.85613 16.3123 8.01769C16.2982 8.17926 16.4414 8.31995 16.6323 8.33192Z" fill="white"/>
<path d="M9.49885 12.3447C12.3081 12.345 14.5858 10.4181 14.5862 8.04072C14.5864 6.89861 14.0503 5.80323 13.0958 4.99576C12.1432 4.18757 10.8493 3.73401 9.50038 3.73545C6.69112 3.73509 4.41341 5.66203 4.413 8.0394C4.4126 10.4168 6.6896 12.3443 9.49885 12.3447ZM6.3924 5.40504C8.10889 3.95247 10.8919 3.95251 12.6083 5.40511C13.434 6.10387 13.8972 7.05195 13.8957 8.04011C13.8973 9.0269 13.434 9.97351 12.6083 10.6702L12.6083 10.6654C10.8918 12.118 8.1088 12.1179 6.39234 10.6653C4.67584 9.21273 4.67587 6.85761 6.3924 5.40504Z" fill="white"/>
<path d="M4.63777 1.49555C4.63806 1.49599 4.63835 1.49643 4.63868 1.49684L5.6118 2.92151C5.70749 3.06079 5.91855 3.10805 6.08313 3.02707C6.24772 2.94609 6.30357 2.76748 6.20788 2.6282L5.23475 1.20353C5.13944 1.06441 4.92901 1.01682 4.76437 1.09716C4.5994 1.17762 4.5427 1.35598 4.63777 1.49555Z" fill="white"/>
<path d="M4.75172 14.982C4.91631 15.063 5.12736 15.0157 5.22306 14.8765L6.19621 13.4518C6.29257 13.3128 6.23754 13.1341 6.07338 13.0526C6.07305 13.0524 6.07276 13.0523 6.07243 13.0521C5.90799 12.971 5.69693 13.018 5.60105 13.1572C5.60076 13.1576 5.60043 13.1581 5.60014 13.1585L4.62699 14.5831C4.5313 14.7225 4.58714 14.901 4.75172 14.982Z" fill="white"/>
<path d="M12.9179 3.02718C13.0825 3.10816 13.2936 3.0609 13.3893 2.92162L14.3624 1.49698C14.4581 1.35769 14.4023 1.17909 14.2377 1.0981C14.0731 1.01712 13.8621 1.06438 13.7664 1.20366L12.7932 2.6283C12.6975 2.76763 12.7534 2.94619 12.9179 3.02718Z" fill="white"/>
<path d="M15.4239 5.14805C15.5196 5.28733 15.7307 5.3346 15.8953 5.25361L17.5787 4.4301C17.7433 4.34911 17.7992 4.17051 17.7035 4.03122C17.6078 3.89194 17.3967 3.84468 17.2322 3.92566L15.5487 4.74917C15.3841 4.8302 15.3282 5.00876 15.4239 5.14805Z" fill="white"/>
</g>
<defs>
<clipPath id="clip0">
<rect width="19" height="16.079" fill="white" transform="translate(19.0002 16.0797) rotate(-179.999)"/>
</clipPath>
</defs>
</svg>
