<svg width="19" height="17" viewBox="0 0 19 17" fill="none" xmlns="http://www.w3.org/2000/svg">
<g clip-path="url(#clip0)">
<path d="M17.7032 4.03064C17.6075 3.89135 17.3965 3.84409 17.2319 3.92508L15.5484 4.74861C15.3838 4.82959 15.328 5.0082 15.4237 5.14748C15.5194 5.28676 15.7304 5.33402 15.895 5.25304L17.5785 4.42951C17.743 4.34849 17.7989 4.16992 17.7032 4.03064Z" fill="black"/>
<path d="M17.5785 11.6512L15.895 10.8277C15.7304 10.7467 15.5194 10.7939 15.4237 10.9332C15.328 11.0725 15.3838 11.2511 15.5484 11.3321L17.2319 12.1556C17.3965 12.2366 17.6075 12.1894 17.7032 12.0501C17.7989 11.9107 17.743 11.7322 17.5785 11.6512Z" fill="black"/>
<path d="M9.52664 13.8043C9.33572 13.7923 9.16951 13.9135 9.15533 14.0751C9.15404 14.0895 9.15404 14.104 9.15533 14.1185V15.764C9.14114 15.9255 9.2844 16.0662 9.47531 16.0782C9.66623 16.0902 9.83243 15.969 9.84662 15.8074C9.84791 15.7929 9.84791 15.7784 9.84662 15.764V14.1185C9.86076 13.957 9.7175 13.8163 9.52664 13.8043Z" fill="black"/>
<path d="M3.4517 4.74861L1.76823 3.92508C1.60364 3.84409 1.39259 3.89135 1.29689 4.03064C1.2012 4.16992 1.25704 4.34853 1.42163 4.42951L3.1051 5.25304C3.26969 5.33402 3.48074 5.28676 3.57644 5.14748C3.67213 5.00816 3.61629 4.82959 3.4517 4.74861Z" fill="black"/>
<path d="M9.52663 0.000820151C9.33571 -0.0111864 9.16951 0.110047 9.15532 0.271611C9.15404 0.286075 9.15404 0.30058 9.15532 0.315044V1.9605C9.15637 2.12122 9.3101 2.25131 9.50001 2.2522C9.69145 2.2522 9.84661 2.1209 9.84661 1.95889V0.315084C9.86075 0.15352 9.71749 0.0128267 9.52663 0.000820151Z" fill="black"/>
<path d="M6.20538 2.62766L5.23415 1.203C5.13845 1.06372 4.9274 1.01646 4.76281 1.09744C4.59823 1.17842 4.54238 1.35703 4.63808 1.49631L5.60931 2.92098C5.70501 3.06026 5.91606 3.10752 6.08065 3.02654C6.24523 2.94551 6.30108 2.76695 6.20538 2.62766Z" fill="black"/>
<path d="M9.55137 5.43673C9.53428 5.43564 9.51714 5.43564 9.50005 5.43673C7.80143 5.43673 6.42447 6.60201 6.42447 8.03949C6.42447 8.20149 6.57963 8.3328 6.77107 8.3328C6.96174 8.33192 7.11576 8.20085 7.11576 8.03949C7.11471 6.92602 8.1805 6.02263 9.49624 6.02175C9.49753 6.02175 9.49876 6.02175 9.50005 6.02175C9.69096 6.03375 9.85717 5.91252 9.87136 5.75095C9.88554 5.58939 9.74229 5.4487 9.55137 5.43673Z" fill="black"/>
<path d="M18.9476 8.01697C18.9349 7.87213 18.7989 7.75694 18.6277 7.74618H16.6833C16.4924 7.73417 16.3262 7.85541 16.312 8.01697C16.2978 8.17854 16.441 8.31919 16.632 8.3312C16.6491 8.33229 16.6662 8.33229 16.6833 8.3312H18.6277C18.8186 8.31923 18.9618 8.17854 18.9476 8.01697Z" fill="black"/>
<path d="M2.36801 7.74776C2.35092 7.74668 2.33378 7.74668 2.31669 7.74776H0.372314C0.1814 7.75977 0.0381426 7.90046 0.0523302 8.06199C0.065042 8.20683 0.20111 8.32202 0.372314 8.33278H2.31669C2.50761 8.34479 2.67381 8.22355 2.688 8.06199C2.70219 7.90042 2.55893 7.75973 2.36801 7.74776Z" fill="black"/>
<path d="M9.50142 3.73486C6.69217 3.73454 4.41452 5.6615 4.41409 8.03887C4.4139 9.18098 4.95008 10.2764 5.90451 11.0838C6.85713 11.892 8.15112 12.3455 9.49999 12.3441C12.3092 12.3444 14.5869 10.4174 14.5873 8.04008C14.5877 5.66271 12.3107 3.73519 9.50142 3.73486ZM12.6079 10.6745C10.8915 12.127 8.10851 12.127 6.39204 10.6745C5.56634 9.9757 5.10315 9.02763 5.10467 8.03947C5.103 7.05269 5.56634 6.10607 6.39204 5.40933V5.41416C8.10851 3.96158 10.8915 3.96158 12.6079 5.41416C14.3245 6.86675 14.3245 9.22187 12.6079 10.6745Z" fill="black"/>
<path d="M14.3628 14.5839C14.3625 14.5835 14.3622 14.583 14.3619 14.5826L13.3887 13.158C13.293 13.0187 13.082 12.9714 12.9174 13.0524C12.7528 13.1334 12.697 13.312 12.7926 13.4513L13.7658 14.8759C13.8611 15.015 14.0715 15.0626 14.2362 14.9823C14.4011 14.9018 14.4578 14.7235 14.3628 14.5839Z" fill="black"/>
<path d="M14.2486 1.09744C14.084 1.01646 13.873 1.06372 13.7773 1.203L12.8041 2.62767C12.7078 2.76663 12.7628 2.94535 12.927 3.02686C12.9273 3.02702 12.9276 3.02718 12.9279 3.02734C13.0924 3.10849 13.3034 3.06147 13.3993 2.92227C13.3996 2.92182 13.3999 2.92138 13.4002 2.92098L14.3733 1.49631C14.469 1.35699 14.4132 1.17842 14.2486 1.09744Z" fill="black"/>
<path d="M6.08255 13.0524C5.91796 12.9714 5.70691 13.0187 5.61122 13.158L4.63808 14.5826C4.54238 14.7219 4.59823 14.9005 4.76281 14.9815C4.9274 15.0625 5.13845 15.0152 5.23415 14.8759L6.20729 13.4513C6.30298 13.3119 6.24714 13.1334 6.08255 13.0524Z" fill="black"/>
<path d="M3.57644 10.9315C3.48074 10.7922 3.26969 10.745 3.1051 10.826L1.42163 11.6495C1.25704 11.7305 1.2012 11.9091 1.29689 12.0484C1.39259 12.1876 1.60364 12.2349 1.76823 12.1539L3.4517 11.3304C3.61629 11.2494 3.67213 11.0708 3.57644 10.9315Z" fill="black"/>
</g>
<defs>
<clipPath id="clip0">
<rect width="19" height="16.079" fill="white"/>
</clipPath>
</defs>
</svg>
