<svg width="24" height="20" viewBox="0 0 24 20" fill="none" xmlns="http://www.w3.org/2000/svg">
<path d="M0.974395 17.7208C2.97097 19.0715 5.33934 19.8532 7.87814 19.8532C15.0106 19.8532 20.7923 13.6852 20.7923 6.07802C20.7923 5.88808 20.7886 5.69955 20.7817 5.51158C21.0397 5.29503 22.6353 3.93093 23.0264 3.05399C23.0264 3.05399 21.7307 3.62836 20.4625 3.76367C20.46 3.76367 20.4569 3.7643 20.4544 3.7643C20.4544 3.7643 20.4569 3.76297 20.4613 3.75967C20.5781 3.67639 22.2117 2.49022 22.4329 1.07689C22.4329 1.07689 21.5164 1.59867 20.2333 2.05515C20.0208 2.13043 19.7985 2.20443 19.5692 2.27304C18.742 1.33143 17.5664 0.743713 16.2613 0.743713C13.7581 0.743713 11.7296 2.90674 11.7296 5.57484C11.7296 5.95135 11.7702 6.31781 11.8471 6.66967C11.4972 6.65436 6.17022 6.33578 2.54624 1.65457C2.54624 1.65457 0.380361 4.8085 3.83694 8.05167C3.83694 8.05167 2.78619 8.00702 1.87967 7.42927C1.87967 7.42927 1.54671 11.2502 5.46119 12.2271C5.46119 12.2271 4.69093 12.5383 3.46211 12.3164C3.46211 12.3164 4.14929 15.4037 7.62714 15.6923C7.62714 15.6923 4.87703 18.3422 0.973145 17.7205L0.974395 17.7208Z" fill="white"/>
</svg>
