<svg width="29" height="24" viewBox="0 0 29 24" fill="none" xmlns="http://www.w3.org/2000/svg">
<path d="M0.00164448 21.3219C2.62714 23.0183 5.74155 24 9.08008 24C18.4592 24 26.0623 16.2536 26.0623 6.69948C26.0623 6.46093 26.0573 6.22415 26.0483 5.98807C26.3876 5.7161 28.4857 4.00289 29 2.90153C29 2.90153 27.2962 3.6229 25.6286 3.79283C25.6253 3.79283 25.6212 3.79363 25.6179 3.79363C25.6179 3.79363 25.6212 3.79195 25.6269 3.78781C25.7806 3.68322 27.9288 2.19348 28.2196 0.418447C28.2196 0.418447 27.0145 1.07376 25.3271 1.64707C25.0477 1.7416 24.7553 1.83455 24.4538 1.92071C23.3661 0.738125 21.8201 0 20.104 0C16.8122 0 14.1448 2.7166 14.1448 6.06753C14.1448 6.54039 14.1982 7.00064 14.2992 7.44254C13.8392 7.42332 6.83417 7.02321 2.06863 1.14396C2.06863 1.14396 -0.779512 5.10506 3.76589 9.17824C3.76589 9.17824 2.38415 9.12215 1.19208 8.39655C1.19208 8.39655 0.754234 13.1953 5.90178 14.4223C5.90178 14.4223 4.88889 14.8131 3.273 14.5345C3.273 14.5345 4.17664 18.4119 8.75001 18.7742C8.75001 18.7742 5.13361 22.1024 0 21.3215L0.00164448 21.3219Z" fill="#1DA1F2"/>
</svg>
