<svg width="29" height="24" viewBox="0 0 29 24" fill="none" xmlns="http://www.w3.org/2000/svg">
<path d="M0.00164448 21.0789C2.62714 22.6981 5.74155 23.6351 9.08008 23.6351C18.4592 23.6351 26.0623 16.241 26.0623 7.12137C26.0623 6.89367 26.0573 6.66766 26.0483 6.44232C26.3876 6.18272 28.4857 4.54742 29 3.49614C29 3.49614 27.2962 4.1847 25.6286 4.34691C25.6253 4.34691 25.6212 4.34767 25.6179 4.34767C25.6179 4.34767 25.6212 4.34607 25.6269 4.34211C25.7806 4.24228 27.9288 2.82029 28.2196 1.12598C28.2196 1.12598 27.0145 1.7515 25.3271 2.29873C25.0477 2.38897 24.7553 2.47769 24.4538 2.55993C23.3661 1.43112 21.8201 0.726562 20.104 0.726562C16.8122 0.726562 14.1448 3.31962 14.1448 6.51816C14.1448 6.96952 14.1982 7.40884 14.2992 7.83065C13.8392 7.81229 6.83417 7.43039 2.06863 1.8185C2.06863 1.8185 -0.779512 5.59946 3.76589 9.48741C3.76589 9.48741 2.38415 9.43387 1.19208 8.74127C1.19208 8.74127 0.754234 13.3218 5.90178 14.493C5.90178 14.493 4.88889 14.866 3.273 14.6C3.273 14.6 4.17664 18.3011 8.75001 18.647C8.75001 18.647 5.13361 21.8238 0 21.0784L0.00164448 21.0789Z" fill="white"/>
</svg>
